<mxfile host="Electron" agent="Mozilla/5.0 (Windows NT 10.0; Win64; x64) AppleWebKit/537.36 (KHTML, like Gecko) draw.io/24.7.5 Chrome/126.0.6478.183 Electron/31.3.0 Safari/537.36" version="24.7.5">
  <diagram name="第 1 页" id="PM41LekjE35TkPLlNOaV">
    <mxGraphModel dx="1909" dy="1304" grid="1" gridSize="10" guides="1" tooltips="1" connect="1" arrows="1" fold="1" page="1" pageScale="1" pageWidth="827" pageHeight="1169" math="0" shadow="0">
      <root>
        <mxCell id="0" />
        <mxCell id="1" parent="0" />
        <mxCell id="etoiEx8Ak2_giqTQEWYt-5" style="edgeStyle=orthogonalEdgeStyle;rounded=0;orthogonalLoop=1;jettySize=auto;html=1;exitX=0.5;exitY=0;exitDx=0;exitDy=0;entryX=0;entryY=0.5;entryDx=0;entryDy=0;fillColor=#dae8fc;strokeColor=#6c8ebf;strokeWidth=2;" parent="1" source="etoiEx8Ak2_giqTQEWYt-1" target="etoiEx8Ak2_giqTQEWYt-2" edge="1">
          <mxGeometry relative="1" as="geometry" />
        </mxCell>
        <mxCell id="etoiEx8Ak2_giqTQEWYt-9" style="edgeStyle=orthogonalEdgeStyle;rounded=0;orthogonalLoop=1;jettySize=auto;html=1;exitX=1;exitY=0.5;exitDx=0;exitDy=0;entryX=0;entryY=0.5;entryDx=0;entryDy=0;strokeWidth=2;fillColor=#dae8fc;strokeColor=#6c8ebf;" parent="1" source="etoiEx8Ak2_giqTQEWYt-1" target="etoiEx8Ak2_giqTQEWYt-3" edge="1">
          <mxGeometry relative="1" as="geometry" />
        </mxCell>
        <mxCell id="etoiEx8Ak2_giqTQEWYt-10" style="edgeStyle=orthogonalEdgeStyle;rounded=0;orthogonalLoop=1;jettySize=auto;html=1;exitX=0.5;exitY=1;exitDx=0;exitDy=0;entryX=0;entryY=0.5;entryDx=0;entryDy=0;fillColor=#dae8fc;strokeColor=#6c8ebf;strokeWidth=2;" parent="1" source="etoiEx8Ak2_giqTQEWYt-1" target="etoiEx8Ak2_giqTQEWYt-4" edge="1">
          <mxGeometry relative="1" as="geometry" />
        </mxCell>
        <mxCell id="etoiEx8Ak2_giqTQEWYt-1" value="&lt;font style=&quot;font-size: 18px;&quot;&gt;&lt;font face=&quot;Lucida Console&quot; style=&quot;font-size: 18px;&quot;&gt;resamb_LAMBDA&lt;br&gt;双差整周模糊度的固定&lt;/font&gt;&lt;br&gt;&lt;/font&gt;" style="rounded=0;whiteSpace=wrap;html=1;" parent="1" vertex="1">
          <mxGeometry x="98" y="510" width="190" height="60" as="geometry" />
        </mxCell>
        <mxCell id="etoiEx8Ak2_giqTQEWYt-2" value="&lt;font style=&quot;&quot;&gt;&lt;font face=&quot;Lucida Console&quot; style=&quot;font-size: 18px;&quot;&gt;ddmat（ddidx）&lt;br&gt;创建单差到双差的&lt;/font&gt;&lt;/font&gt;&lt;div&gt;&lt;font style=&quot;&quot;&gt;&lt;font face=&quot;Lucida Console&quot; style=&quot;font-size: 18px;&quot;&gt;转换矩阵D&#39;&lt;/font&gt;&lt;br&gt;&lt;/font&gt;&lt;/div&gt;" style="rounded=0;whiteSpace=wrap;html=1;" parent="1" vertex="1">
          <mxGeometry x="390" y="350" width="190" height="70" as="geometry" />
        </mxCell>
        <mxCell id="etoiEx8Ak2_giqTQEWYt-3" value="&lt;font style=&quot;&quot;&gt;&lt;font face=&quot;Lucida Console&quot; style=&quot;font-size: 18px;&quot;&gt;lambda&lt;/font&gt;&lt;/font&gt;&lt;div&gt;&lt;font style=&quot;&quot;&gt;&lt;font face=&quot;ilaysGVite_7ZP90FXpt&quot; style=&quot;font-size: 18px;&quot;&gt;计算双差整数模糊度最优解以及残差&lt;/font&gt;&lt;br&gt;&lt;/font&gt;&lt;/div&gt;" style="rounded=0;whiteSpace=wrap;html=1;" parent="1" vertex="1">
          <mxGeometry x="390" y="505" width="190" height="70" as="geometry" />
        </mxCell>
        <mxCell id="etoiEx8Ak2_giqTQEWYt-4" value="&lt;font style=&quot;&quot;&gt;&lt;font face=&quot;Lucida Console&quot; style=&quot;font-size: 18px;&quot;&gt;restamb&lt;br&gt;重新计算单差相位偏移&lt;/font&gt;&lt;br&gt;&lt;/font&gt;" style="rounded=0;whiteSpace=wrap;html=1;" parent="1" vertex="1">
          <mxGeometry x="390" y="670" width="190" height="60" as="geometry" />
        </mxCell>
        <mxCell id="etoiEx8Ak2_giqTQEWYt-11" value="&lt;font face=&quot;Lucida Console&quot; style=&quot;font-size: 18px;&quot;&gt;rtk控制结构体&lt;/font&gt;" style="text;html=1;strokeColor=none;fillColor=none;align=center;verticalAlign=middle;whiteSpace=wrap;rounded=0;" parent="1" vertex="1">
          <mxGeometry x="227" y="354" width="130" height="30" as="geometry" />
        </mxCell>
        <mxCell id="etoiEx8Ak2_giqTQEWYt-12" value="&lt;font style=&quot;&quot;&gt;&lt;font face=&quot;Lucida Console&quot; style=&quot;font-size: 18px;&quot;&gt;浮点参数&lt;/font&gt;&lt;/font&gt;&lt;div&gt;&lt;font style=&quot;&quot;&gt;&lt;font face=&quot;Lucida Console&quot; style=&quot;font-size: 18px;&quot;&gt;及协方差&lt;/font&gt;&lt;br&gt;&lt;/font&gt;&lt;/div&gt;" style="text;html=1;strokeColor=none;fillColor=none;align=center;verticalAlign=middle;whiteSpace=wrap;rounded=0;" parent="1" vertex="1">
          <mxGeometry x="290" y="490" width="100" height="50" as="geometry" />
        </mxCell>
        <mxCell id="etoiEx8Ak2_giqTQEWYt-14" value="&lt;font style=&quot;&quot;&gt;&lt;font face=&quot;Lucida Console&quot; style=&quot;font-size: 18px;&quot;&gt;利用lambda算法求&lt;br&gt;解双差整周模糊度&lt;/font&gt;&lt;br&gt;&lt;/font&gt;" style="text;html=1;strokeColor=none;fillColor=none;align=center;verticalAlign=middle;whiteSpace=wrap;rounded=0;" parent="1" vertex="1">
          <mxGeometry x="210" y="650" width="164" height="50" as="geometry" />
        </mxCell>
        <mxCell id="etoiEx8Ak2_giqTQEWYt-15" value="&lt;div style=&quot;&quot;&gt;&lt;span style=&quot;font-size: 18px; font-family: &amp;quot;Lucida Console&amp;quot;; background-color: initial;&quot;&gt;单差转双差阵&lt;/span&gt;&lt;/div&gt;&lt;div style=&quot;&quot;&gt;&lt;font style=&quot;&quot;&gt;&lt;font face=&quot;Lucida Console&quot; style=&quot;font-size: 18px;&quot;&gt;这里的D&#39;阵实际是RTKLIB Manual中E.7.5中的G阵&lt;/font&gt;&lt;br&gt;&lt;/font&gt;&lt;/div&gt;" style="text;html=1;strokeColor=none;fillColor=none;align=left;verticalAlign=middle;whiteSpace=wrap;rounded=0;" parent="1" vertex="1">
          <mxGeometry x="374" y="276" width="230" height="70" as="geometry" />
        </mxCell>
        <mxCell id="etoiEx8Ak2_giqTQEWYt-17" value="&lt;font style=&quot;&quot;&gt;&lt;font face=&quot;Lucida Console&quot; style=&quot;font-size: 18px;&quot;&gt;(y=D&#39;*x, Qy=D&#39;*P*D)&lt;br&gt;根据RTKLIB Manual中的式E.7.15、式E.7.16计算双差状态量和双差协方差阵以及式E.7.16中的Q、N，Q_NR矩阵。做LAMBDA算法前将单差转换为双差，是为了去除接收机的初始相位偏移，这样就只剩下整周的模糊度。&lt;/font&gt;&lt;br&gt;&lt;/font&gt;" style="text;html=1;strokeColor=none;fillColor=none;align=left;verticalAlign=middle;whiteSpace=wrap;rounded=0;" parent="1" vertex="1">
          <mxGeometry x="631.74" y="270" width="280" height="180" as="geometry" />
        </mxCell>
        <mxCell id="etoiEx8Ak2_giqTQEWYt-18" value="&lt;font style=&quot;&quot;&gt;&lt;font style=&quot;font-size: 18px;&quot; face=&quot;Lucida Console&quot;&gt;lambda算法进行降相关，mlambda进行搜索&lt;/font&gt;&lt;br&gt;&lt;/font&gt;" style="text;html=1;strokeColor=none;fillColor=none;align=left;verticalAlign=middle;whiteSpace=wrap;rounded=0;" parent="1" vertex="1">
          <mxGeometry x="661.5" y="500" width="190" height="80" as="geometry" />
        </mxCell>
        <mxCell id="etoiEx8Ak2_giqTQEWYt-19" value="&lt;font style=&quot;&quot;&gt;&lt;font face=&quot;Lucida Console&quot; style=&quot;font-size: 18px;&quot;&gt;利用lambda算法计算得到的双差整周模糊度，重新计算单差相位偏移，并存入xa中&lt;/font&gt;&lt;br&gt;&lt;/font&gt;" style="text;html=1;strokeColor=none;fillColor=none;align=left;verticalAlign=middle;whiteSpace=wrap;rounded=0;" parent="1" vertex="1">
          <mxGeometry x="661.5" y="621.17" width="190" height="145" as="geometry" />
        </mxCell>
        <mxCell id="etoiEx8Ak2_giqTQEWYt-21" value="" style="shape=image;verticalLabelPosition=bottom;labelBackgroundColor=default;verticalAlign=top;aspect=fixed;imageAspect=0;image=data:image/jpeg,/9j/4AAQSkZJRgABAQEAYABgAAD/2wBDAAMCAgMCAgMDAwMEAwMEBQgFBQQEBQoHBwYIDAoMDAsKCwsNDhIQDQ4RDgsLEBYQERMUFRUVDA8XGBYUGBIUFRT/2wBDAQMEBAUEBQkFBQkUDQsNFBQUFBQUFBQUFBQUFBQUFBQUFBQUFBQUFBQUFBQUFBQUFBQUFBQUFBQUFBQUFBQUFBT/wAARCACbARgDASIAAhEBAxEB/8QAHwAAAQUBAQEBAQEAAAAAAAAAAAECAwQFBgcICQoL/8QAtRAAAgEDAwIEAwUFBAQAAAF9AQIDAAQRBRIhMUEGE1FhByJxFDKBkaEII0KxwRVS0fAkM2JyggkKFhcYGRolJicoKSo0NTY3ODk6Q0RFRkdISUpTVFVWV1hZWmNkZWZnaGlqc3R1dnd4eXqDhIWGh4iJipKTlJWWl5iZmqKjpKWmp6ipqrKztLW2t7i5usLDxMXGx8jJytLT1NXW19jZ2uHi4+Tl5ufo6erx8vP09fb3+Pn6/8QAHwEAAwEBAQEBAQEBAQAAAAAAAAECAwQFBgcICQoL/8QAtREAAgECBAQDBAcFBAQAAQJ3AAECAxEEBSExBhJBUQdhcRMiMoEIFEKRobHBCSMzUvAVYnLRChYkNOEl8RcYGRomJygpKjU2Nzg5OkNERUZHSElKU1RVVldYWVpjZGVmZ2hpanN0dXZ3eHl6goOEhYaHiImKkpOUlZaXmJmaoqOkpaanqKmqsrO0tba3uLm6wsPExcbHyMnK0tPU1dbX2Nna4uPk5ebn6Onq8vP09fb3+Pn6/9oADAMBAAIRAxEAPwD9U6KKKACiiigAooooAKKKKACiiigAooooAKKKKACiiigAooooAKKKKACiiigAooooAKKKKACiiigAooooAKKKKACiiigAooooAKKKKACiiigAooooAKKKKACiq6ahayXstmlxE13EiySW6uDIisSFYr1AJVsHvtPpXE6h+0B8L9J8TN4bvviR4Rs/ESzratpFxrlrHdiZiAsZhMm/eSRhcZORR1sB31FFFABRRRQAUUUUAFFFFABRRRQAUUUUAFFFFABRRRQAUUUUAFFFFABRRRQAUVBfX1tplrJc3lxFa20fLzTuERecck8Dmp6ACiiigAooooAKKKKACiiigArmPiZ4/wBN+FvgPW/FWrFzZaXbNO0cYzJKw4WNB3d2Kqo7lgK6evnj4vXX/C1P2ivh/wDDKNt+laGn/CZ6+mDhhC+zT4W/3p90uP8Ap2HGDStzNR7/ANMNk5Pod78DPBuq+H/C02ueKAreNfEcg1LWSpysEjKBHaof+ecCbY19drN1Y18Q/C/TLb40f8FcfH+vvbQ3Wm+C9P8AKjlCb1FwkUUAyTkBwzzY9PL9Rmv0L8ceMtH+HnhHVPEevX8GmaRpsDT3F1cyBERQPU9ycADuSB3r8+v+CQuoWHjjVfjd46uLuGTxJrmtpNPbGUedHCxllDlAeFZ5WAOMEoR2q6etVy6Ri/x0QpK1K3Vtf5s/SGlr5r8YftIQeIPi94r8AaZ4tt/BGmeE7aJ9c14QR3N7500ZdY7eORXjjVEwzTSxuuSFC8MR6F4v+JGqeHfh7oHjDwpHH8Q/DkaR3GpT2TLLeXdiU5ubURARyyA4cxhQGXcEwcAx05ug+vKepUV5B8Pfjt/wufxlGfAcFvqvw9s4C1/4qkLiO5uGUFLa0HG9kzmVz8qnCYLbtnA+Iv2lrXxX8TvHPhOz8a23w/8ADngtUg1fXo4Yri/kuWTzGESypJFBFGv3pJY3DNuCgbGJfWwH07RVDQdRtNY0WwvrHUI9WsriBJYb6J0dLhCoKyBk+UhhzleOeKv0PTQSd1cKKKKBhRRRQAUUUUAFFFFABRRRQAUUUUAFFFFABRRRQBneIvD+n+K9B1DRtVtY73Tb+B7a4t5RlZI3Uqyke4NeX/AHxZqVrceIfht4mupLvxL4PkjijvZyDJqWmygm0uz6sVVonPeSFz3Few188/tGTj4U/Ej4d/FqJvIsba8HhnxC3O1tPvXVYpG/65XIhbPYSP60R+K3fT/L/L5g/h9Nf8z6GopFOQDRQAtFFFABRRRQAUUUUANY7VJr5l/Y+uW+InjT4zfFOZhMmu+JG0fTJAQy/wBn6evkRlD1w0hmbHqc163+0F46/wCFY/BDx14qV1jl0nRrq6iLHAMixNsH4ttH41xP7C/hFfBf7JnwzsjH5c9xpMeoT7h8zSXBM7FvU5k60Q3k+yS+/wD4b8RS2iu7/L/h0e70lLRQM+ej8HfH3w8+I3xF1rwJH4b1vSfHcsN5dw+Ir6e0k0y6SEQM8Yit5RcxsqhvLZoiCCN2GyJvDf7OOv8Agv8AZ/8ABfwl0Pxc1jpljGLbXNct0aG+mtyWeRLQDIhaR227iSUQnblsEe/0UdLen4bB1uv6ueQeA/gW/wAHfG0TeAri00f4e3kLDUvCro3lQXCqAlzZkcRs+MSoflb7/D7t3Gf8KN+IHgHW/ifb+B18MatoPj+/k1OeXxBez28+lXEsKQzFYo7eRbpCE3hGeH+7uwd1fSVFJ+9v2t8g2OK+C3w1j+Dvwn8KeCYb19Sj0LT4bH7ZImwzFFAL7cnGTnjJx0ya7WiiqlJybkxRSirIKKKKQwopKWgAooooAKKKKACiiigAooooAKKKKACiiigArz39oL4eJ8WPgn418Itw+raXPbwtgEpLsJjYZ7hwp/CvQqa3Kke1RNXi0iovlaZ5L+yb8Tm+MH7O/gbxPcSrLqNzpyQ3+DyLqLMUwPofMRuKK8o/YOuX8N618c/h3IVSPwz43u5rOBePKtbv99GoHYZ3nj1oraT5nzd7P71cziuW8V0bX3H1lS147+1B+054b/Zb8Ap4h1yC41S/vJxZ6XotkR9ov7g9EXPRR1ZsHAxwSQDwvjPx5+0j4b+FX/CeWugeEtQ1Ffs87/D2y0q9utQETuivGt8lyFaVQxY4tdo2kc4yYXvbehW1l3PpyioLJppLOBrhVS4KAyKvQNjkD2zU9AlqrhRRRQM+Tf8AgqBrE1j+yJ4i022kKXWt31hpkSKMtIXuoyVH1VWr6b8I6LF4c8L6RpUC+XBY2kVsi4xhUQKB+Qr5N/4KXSG68K/B3RdpePVfiJpUEi8YZR5hwc8dcdQRX2Qv3R9KcdIN95fkl/mEvij6fm3/AJC0UUUgCiiigAooooAKKKKACiikoA/Nf/gqnoel/Er42fs/eAI7COfWNX1N47i5iVTOlq80Me08Z28yNzx8h4q7/wAFCNNs/wBjOy+G3xH+D1ra+Ar5NZ+xahpOhILOx1aHyi+Lm3jASTHlldxGRv65AIq6pdQ/Gr/gsBYRRXSzad4B0cmTABUOkLMwz2Iluhk+q4q3+1rbzft2ftIeB/hJ4Kc6r4K8IXbX/i3XrXElnBIdo8gSg4MoQOu0HO6X/YbBSvy0l1bb+V/yshzspyvso2+dv+CfoV4e1Zde0HT9SVGiW7t45wjDBUMobB9+a0aitreO1t44YlCRxqFVR2AGAKlpytfQiN+VX3CiiikUFFFFABRRRQAUUUUAFFFFABSUtFAHxx8MDbeEf+Cl3xd0eNmjbxN4W03WdmRtZoSIWP1wc/nRUPid20j/AIKqeD5QrBdW8AXFsSEwDsnlk5Oefuj6cUUR1pw+f4NoJfxJfL/0lHkX7S3mfFz/AIKofB/wPqT7tC8P2seox27glWlVZbljjPO4wxL/AMBr3v4u/tqeIvhz+1N4c+Cej/Dey8S6jr8ENzZ6k/iQ2ipG2/e0sf2R9uzypDhWbKgEcnaO1+MH7Klr8QPjF4U+LXhvXh4U+InhyJrWC9uLEX9ldW7bgY57fzI2b5ZJAGSRCN/U4GMDwb+xvd2n7Tkfxx8Z+OV8V+KI7B7KKxtdHFjZW2QUUwq00rqojZhhnYlmZt3O0OnZRhF7Jtvz/rQKmrlJbtJLy/rU+l1JKgkYOOea+Vv2kvB/w11z4kfafFf7UHir4Rap9jiX/hHtH+IFtokGwFts32eQFstzluh2j0r6rrhfGHwJ+GvxE1j+1vFfw88K+JtV8tYft2saLbXc+xc7V3yIWwMnAzjk1L3Q0fHX/Ctvgh/0fj8QP/Dw2P8A8TX2h8I7HS9N+Gvh620XxXd+OdKitVW38RX+orqE9+mT+9e4X5ZSf7w9K5n/AIZP+CH/AERv4f8A/hL2P/xqvRdA8P6X4V0e00jRNNtNI0q0Ty7exsIFgghTsqIoCqPYCqvpYm2tz45/4KRf8hr9nP8A7KNp/wDOvtVegr4w/wCClsZtdP8AgXq20bbD4jaYzOQSFB3nkD/dFfZ6/dFOP8K395/lEcviXp+rFoooqQCiiigAooooAKKKKACkIzwaWigDy24/ZX+Ct1PJNP8ACDwHPNKxeSSTwzZMzMTkkkxZJJr0HQfDuleFdLg03RdMs9I06BQkVnYwJDDGoAACooAAAAHA7Vo0UAFFFFABRRRQAUV5T8bP2ovhp+zrNpcfxC1+40D+1N32OQaTeXUcpXG5Q8ELqGGR8pIODnFWPDf7Snw78T+JrXw5Hrk+keILwbrPSfEel3mjXV2MZzBFeRRNMMd0DULXYHpuenUUUUAFFFFABRRRQAUUUUAfFfxZkeP/AIKgfBYIzKG8L6krAHGRtnOD+QoqfxtjVf8AgqZ8O4MK39meB7y6/wBWSRvllTOeg+v4d6KIP91DTv8A+lMzqRbqS+X5I+zaKKKDQKKKKACiiigD5D/4KkaW837K93rcUIll8P6zp2qLxkrtuFjJH4SHr2zX1fo98upaTZ3acpPEki8g8MAf615j+1r4Lk+If7NPxJ0C3i8+6vNDuvs8fHMyIXjHP+0q0n7JPi4+Ov2ZvhnrbyebNc6DaCZs5zIkYR//AB5Woh8Ml2af3r/gClvF+q+63+Z65RRRQMKKKKACiiigAooooAKKKKACiiigAooooAKKKRjgE0AfnJ/wUOkPxV/a+/Z1+FUYSaIX39q30MiAq0TTIDnjP+rt5uOnIqb/AILLSpo/w4+F2tWDNa+IrHxFusLyEhZYgISx2nqPnSI8dwPasW0uNX8Qf8FL9T+Kvib4fePrTwNoenPZ6NqQ8GatOJ5VhEQKpFbMwDGSdgSMYwe4r0vxd8C/GX7Z/wC0l4S8YeMfDt54O+D/AILPn6XpmsgRahrFwxVzJJAGJhjJSMFZNr4QgqCx2lP4aS83J+Wv56Dk7Tk+yt87f5s+0fC9xd3XhvS5r9Ql9JaxPOo6CQoCw/PNalIo2qBS05O7bIiuWKTCiiikUFFFFABRRSN900AfHHg63/4Sr/gqJ481NE3ReGfBFnpjsy/dlnlWYY/4CW/WitD9i6BPF3xo/aQ+IYIkj1LxYuh28gOcx2EIjyD6Ev8ApRT2hBeX56/qJ/HJ+dvuVv0PriiiikMKKKKACiiigCOaJZoXR13KykEHvXzH+wfbnwT4Z+IPwum2JL4G8V3tnbxq2f8AQ7hvtVs3JJ5WYj/gPtX1BXzlrNnH8Jv2ytJ11YTFpHxM0o6PdzK2FGp2StLblh6vbmdc/wDTJR3oj8Vu6/4P/A+YS+H01/T9b/I+jaKKKACiiigAooooAKKKKACiiigAooooAKKKKACiiigAooooAKKKKACiiigAor51/bV/ayvP2QfA+ieKY/B8Pi+yv9Q/s6SFtWNjLFIY2dCv7iUOCI3zkqR8uM5OMjxt+2VrHwR0Xwr4g+LXw9i8NeFfEUsNvFq3h/Wm1X7BLIhcJeRSW1u0eADzH5n3W9BkXvbd7fMbTja/VX+R9QVzXxM8ZW3w7+HfiXxReMFtdH064vpC3pHGz4698Vv2N7BqVnBd2syXFtOiyRSxtuV1IyGBHUEV8+ftkRy+OtH8GfCW03PL481uK2v1jfayaXbEXN6xI5wUjWP6yiplFv3Nr6BFr4ntuX/2G/h/efD39mXwfBqqldb1WKTW9R3AhvPu5GnYEHuBIq/8Bor3W0tYrG1ht4I1ihiQIkajAVQMAD2xRWkmpSbREb213JqKKKkoKKKKACiiigArzn4+fDGb4qfDm703T50svEVlNFqmiXzg4tr+BxJA5x/DuXaw7qzDvXotLSfkBx3wj+IcPxQ8A6Zry272F3IrQ32ny/6yyu42KTwOP7ySKy++Ae9dhWBofgjTfDfiLXtY08S282tPFNeW6v8AuWmRNnnBccOyhFY9xGvcZPQVTEtNAooopDCiiigAooooAKKKKACiiigAooooAKKKKACiiigAooooAKKKKAPzh/4KdXo+JXx6/Z8+EKESQ6jrC3t9Ev3xG80cKt6Y2if8q6z/AILDa5ZaT+y3pmjNsN5qmu2sVrDty37tXdivpgADP+1jvWl44/ZZ+M/ij9tnS/jkbbwLqGj6DC1lpWg3Gv3lvK0IjlRHkkGnyBXLTNIVAYAkLuONx764/ZN1z4x/GjQPiR8ZtY02/j8OAPofgvQhI+nWU24MZpZ5QrXDkhT/AKuMfIvBAqYx5qcIy/mu/vVvyKlLlqOS1srL16/mewfADw/feC/gT4B0XVnb+0NN0GytrlpSMiRIEDA/Qgj8K4z4N2n/AAtT4oeIvi7ON+k+SfD/AIVyMg2Mcmbi7UkdLiZflI4McMR/ir17xZ4Zt/GHhrUtDu57q2tNQga2mkspTFMEYYYK45UkZGRyM8YNXNL0y00XTbXT7C3jtLG1iWGC3hUKkcagBVUDoAAAB7VrKXNNze7/AFMox5YKH9aFuiiioLCiiigAooooAKKKKACiiigAooooAKKKKACiiigAooooAKKKKACiiigAooooAKKKKACiiigAooooAKKKKACiiigAooooAKKKKAP/2Q==;" parent="1" vertex="1">
          <mxGeometry x="370" y="150" width="216.79" height="120" as="geometry" />
        </mxCell>
        <mxCell id="etoiEx8Ak2_giqTQEWYt-22" value="" style="shape=image;verticalLabelPosition=bottom;labelBackgroundColor=default;verticalAlign=top;aspect=fixed;imageAspect=0;image=data:image/png,iVBORw0KGgoAAAANSUhEUgAAAYkAAACBCAYAAAA1+UZkAAAgAElEQVR4nO2df5ATZbrvv5PdslwvO2tx2KM9shfK4IB7Bn8wc9m7Hm4ZEDJaiFKDYB11MmumLrji6i4FmQ2rrufIwYJwxquLe1Er2YHxxwJmCmVdJZhxPDurF26CP+DukBGtUYcESw86kxzlV/LeP9KddHe6k06nOz+G51OVKiZ0Op23336f933e5/k+dYwxBoIgCIJQwFLpCyAIgiCqFzISBEEQhCpkJAiCIAhVyEgQBEEQqpCRIAiCIFQhI0EQBEGoQkaCIAiCUIWMBEEQBKEKGQmCIAhCFTISBEEQhCpkJAiCIAhVyEgQBEEQqpCRIAiCIFQhI0EQBEGoQkaCIAiCUIWMBEEQBKEKGQmCIAhCFTISBEEQhCpkJAiCIAhVyEgQBEEQqpCRIIgJwZfo72pBXV1dgdcK+IZPVfpilRnvR1dDoeuvQ12rD8OpSl/s+QMZCYKYCKS+xMh7UXCOHgzFk2BnQ/BYAXBuBMeSYMkR+J1NgHUurr78wkpfrSKpEyN4L9YEh/cw4ozhbMgDKwDOFcQYY0iO+uHkAOuiq3E5jVxlg5qaICYCn/8NbwXmYM39t2LWJAtSH7+P/R8BWNSCK+stgOXvMO3KKeCWzcEV3630xSpxDp8fOYiAzYn7V/wYk3AKH79/EB/BikU/uQL1ACyXTMOVFzVj2ZxpMOYnnEEs3Iuu+Q3pFcr8Lvj6h5Ew5NwTCEYQxATjLIv6VzGAY3bvEEtW+nJ08SnzO6wMWM68kW8NPneSxSOvM4+jiQHIeXEOD/OHoirtlmRjQTfjFD4nfelpezPPrR9aSRDEhONrDB0IAZiJRVdPrU13wfiHOLD/I4PdYykkhvvh67oJ3595I9btnwPPbj/2hKJIsiTikTfh9z+D9k+7saylAVM7tqAvHIN0++MMTowcQ4xzwjs0BsbiCHlsAJrhCn4Bxk5j1L8anK62N/Pc+inP9ySOoq+rNbOk257T8Gp8jfCWm1E3/3GEE7RTJSWFxHAfv1RuwPyuXoRjZ8rwvWcQC/8Jvq470dX/pbGnHu9H14wObOkLI1bLtzsVQ/jlZ9HV+jD6x5V/SCq2H+vnN6CurhXr+49rfB40cu4THPKHAe6nmHPFRUaeOY3u51k75z48BH8MhrrHUsM9WLZqH/CTexGMjIFFt2PtbW24tZmDBRZMarShre1/YtObUSSjIfzvWxvw8ZM/g1vSz7/AkbeGYFuzCitm1QOpUby/PwKgBT+58mIAF+CSadNxkbjtNfdrHecuB+YuVE6z6IGtzMHJl0tNzOF5nUXiBRZMY0Hm4sDAuVlwrDYXzQWJR1jQ/7zC0pdjNtczzO9/M7edklF2oNuRuyzlHMwTiLC4adc6xPwuO4PNxbxBM74nyeKRIPO67Aw2N/NHxgz/BnNJsnjEz1w2K7O5vCyocv3JaIC5bZzo3tmZOzhqmPsgGfEyO8Dg8LOoQedMU+LzrJlvWcS7nAFW5vB/atA5Bb5gQVez7PoVXFrJIea1c4VdPFE/cwAMdi+LqP58nf1a07nNxzwjIQwowuC1+00WiX/LoqG96cYCGGwu1lPQ99fEnP6RGvWr5mOMRfxuZssYhB0sFD2d/q/4YeYVjIakgwiDEJfxne4ORlg8GWWhPc/w78vOZRT8NXGOHjZk2GCgxhgb8joZh8XME/rK5O8yiiSLD/UwB9fEHN7DKgZUdP84B+s+MMrGMvfTKEMhPDcG+61Lfp6LQRjIzdiPYIzFDzCPrbABSI76mZPjjaDiPc3uIVg9IXa24BcX06+LPbd5mGAkTrNoaEe649tczLsnxKI5vSbJ4pE32W6Pg3Gqs5B0R+GcfjY60SxEcpQF3fbsisEdkLVRtoNwriAbY4yxZJSFelzMxq8w9ig+jGMsEvxjelVi5KoiOcL8ziYGbjXzjxZnfNKzWh0DltBGOr6zEggDinp/FYwIx2wuv7S/Z1aGRhgKYYC1MU/IiLtv1PNcBIIHwephITNGx5xVgug5U7oOVU9GnIU8NgY0M1fwC43frbVf6zi3SRhuJJKjfrbKyc9wtRwfDbE9XjdzeA5Ijx8LMpe1NgaI4jjNRv2rs64iWzcLKTxQ0sH1NBv1u5jT80dVF4b8O9IzvNUGzMRLW9HpNhJMNPAqPcBVBT8w53vwk6Ms+JA7j+FOD8Zu957SJkXCwGbQLNyw51n7N2YjfMxysygYCSVDkHHbqV1H5jyrmD+q3Zpp6tc6z20GVRoCm2RjwQ1s1QR0M2WXsOllbNW70oTOqnNfqBQjwdhXLORZbJ7bwSCEwaTixixjIIRX5QeY4lAIATV8X0V0v9Y8xh7LGAv5jF2D205o76KNmYZ+rfvcxmNydNM4hvc/jg4h1X7+P6M/E4GTQmJ4H7Z0zEZdXR0auvoxnvmcBfULfoNtbdNqM3xPla/x7os++GL8n9wS3LnwR8X/xsQw9m/pQENdXTqyaf1+UdSEuM1bSo5ASh17GzsDMXDtC9FSX+67cTGuvaUNdgxi5+CI4RE0xnAKxwZfRwDNaG+9CvWqx51BLNyX6e91DZ3wHRV6/DiG+33ZpC690hn1C7ApysCY8NqGNs6I0CAhdJSPaKqbjY7H/yrqc9JnuW7+evQNj+c7oQoW1C/YiCgT/YbtbeAM+AVZUkiMHsNhcJj9D/8dzdc08O+H0bvvA9EYxIejogHXTJ+i8IymMB56A70xPRnghfp1Kec2AfPsj2Atoej7k86oK+l3EyIpCiWwGJDUIpvp6Zp55my6idtP5soqOSpMaBv996e0lQTTOaMq4z3VstJSi0aze1nkrHh/yqj7ZiSnWTT4CB9godTnkiwe6s75/4qvqlQR9+nPpSsXcbtn3D1qs31h70dn387br0s8t8GYZ6MSw3hz/wz4R79FPNQNG/92rPcNhI7/H3TfdV92Ro3LMXPqJNMupTrIzg7SFJp5Kp8jEfkr9l++FaPJrxDyLObfD6N337s4Hn4Kdy17CpmvmD0DUyeVcItTIxjcOYiK3p9JDZg5mwMCr2PwWPUJ0wkrrXxtnfr8CPa8Nw1bI2NgY0G4hKnxmf+HV37zK2yf8W+Isy8QdDWn3y/1vhnJ+CD+111vY65/CHH2LSLe5fx/RPHeyJdIpYax67dHcMuBKJLJIXjtxs77DUfo05wdrS1TUN+yEO3CJccC2Bc6mf53IorI4RhgvxHzZsiT+b5Ef9eNuGFzGEAMgc6bcXffZ8Vdh2q/NuDcRlMWUySZQTczm83KADtz+YfMi+mvOuTx2aX62WX+2+tszMbB2PwCA/JUSl5JZNqt8lEeuShEoRX6hLAZKkS2ZTZ4s/2jemfh4j6scD8ys+9qvFc8OTN46XOZ8XSYvs9Uzf1aSnmmK/VXobWdnyUhjIHI9fAO7camtlmY6OuHDLxKZwbJDCWF8f71/B6D+NWAVt9RFV+8RToLensAkUU9GNq7AW2Nxa1PSiZ1FL7WBkVZ5+/M7EQAMQQ6r8R3SpKu5meupv8YMxH84Tzcz/DQyhb+GZiCBZtCYIwhumlBkSvMMiHuw5wdrS2Tpf8vzL6V/q9KSCvNAtw103GpBQAmo6XVntn3iPW+gdD4uey+xcwGk8eo6u/XZVrTTsLUmZdn/uLa78Rts/Q/BqlhH1qFQaZhvar0QVUhPEA82U4KpDfsXNibcR8BAAebZw/8zlnqN0lYsgIAmtHesRiz1NwUkoFc24a28EARagibm/qOr0wwgH4yrjVAwSV2CsMvbcPmWBOcW1fBVpW/SynIwKLgchpGaF8AMczD7fOmT7DgmeIp0++34L9c/PdZa/3eCE6UMK5bGp14LeKFHagu/21JXIjvTxbpsUhmmWp8DxdP/Tv+3wVmJJZZcL7Wz/uMDd5jsMyCc19UFFWTfSUjXtjBwe4dQlLh/xnbBWdjddY3MJzMHg+AssxSjUS8CuJgv/06zBA9dqnjf8amB3cDNifuteuI2CsLCYxGPkZO/5d5OnpffQUH34sC3AxMv/SCSlxoVVGGezmO4b5HpBuqh49h1CDBvtJDxE5h2LdCQ0UvpVc+d1CxCB2Yp5DxSxxFn3sllvmO8G/EcDgS1aaFr1FZ03LpdFxT5fuQypTrnl6AS6fP0B6iKVlN1tosVbwKkoWFJo6gZ/1v4cNq+J9bjeZqnbQJ7rKcwV/mcup2w10gGOF8wtwWSAxj/5ZfwLasB1izBo7MXTiGkROlKJbyBUogFCCRDQrV6IKSzFYUkO1ZSN1RkgPTMemrl2PZZmCN6w7tK7TP/4a3ArGMsqbEbZfPBVXy/TICtXj16qDw6lgW3aZllipRW30c4cQ5aT5CWct4yiYxmbePwLf6n9C5owHu59xYepn4N8mUirccREKSx2PkJKsw6pFoMpcTAKXVkjlUd78GTDESogH7+zNhX7cDcG7Fcx43OjKD5CB6X/kAicQR+Dp/KUoq0oqgly8sGy9Eo6MrXa4Rdri2OjBXs0/0QjQ6dym6Sgq/otiXb89AgnS2Ikfi71UKj83sKXwnrYW/A3D6n4HnN53Zzh3owyvvnkTi6HZ0dm7HUclqLYXxoRD2i9wclsYV2OixAeBgc61H51zZZqNkz6NCZIxnMS6yct1TCyZNnYHZmo6V7V8UmqWmjsK3bC1Crc9g1L8KGHgJu178PR7t+U/c8rud8Nq5PBMJrYgCJgoZHHngBU6nq7otsacNRNCHDQsuk7RbWpr7MFpf+Av8joswsG0nXty2BT3xm/C7AS/shgyQQm3vQgYn6y5TbLecSZzJg7eufl0hjA+YkoWUZVRDlasu6VIVPRtiHqtYACytrmh1bGUHjFY/NRKJsF9WzC0ZHWTdEqlwhfBYSRixWJVSSfpYSbVSEAwThN94wTmrg3UfUFPurNVkujKiVbZEohdUTHuIEgNVdL70I3omC4Y5K/UzjSHXmd8uDvk1Co2hw6IkVGURRvn4ZLIUTLX3axHGGwlxh8hRuxQPkvrVIrMxzAE2Ggkyr2tVDeVciJRaJQ+bi3m9LmZDE3N0D+YobWbj63PzSyT1CdTUX8WD2egQC3rdzCG/PwqUGi9empEwSfbaUDQaUlmukHajKwyCZsimFyOmJ6jYivqroiKsAsJvN9zIMaYpO1lrbQjxPTI1670W+nWWKhX4y4fSiqT6E1IqTo74m8aBv6ICfybXFTAIUxOvhFWzKTPO8tRsORvyMKtpA6IGBd6qozb6tUANGgmxzvrnRWe8nq+kH1S+nYrKpK5c8acJJRWuE1MNUPwA89isCvVMjKR0l6U6gm6UsZX9zKZ2+nWaat5UV0ao+yrTXon5D+HDc5W+uGrlFD5+/yA+EjbEhU262Ds49OE3BT5rQb1tFbY6Ad99Huw5XqYop9RxDDz1NHxYja33z6vODOQMU2C7fz2ceAr3PfwnHDcsXCdlYubvGRwP+DHUvgd7Ny4CZ9pIoJKbYASpzxB49hO0D+3GRtmmedVSU/2ap9JWqmhUtVcWM09ohEX8bmavEQtdPuTL26xP1OZ5h0UjfuayP5R/VUHlSwugpXxpsciDDWqQnCCT85la7Nc1525Sqvsq3lAzuiD7BEGpHKSojjbn6GYBLaKAQp1jm4t5NVYqK5Zk9ADrKbZgfNUg1LC2MpvLq7GKYL7TVU91Mr1kAi5MKB5US9Ryv65jjLFKr2aIWuIMYuEAXtv1IiKtT2DTginGnXq8H11ztuOHm+/HnUubTXSBmEwqhvDeP2HX7z9D6+5HsKAqdYyIslHj/ZqMBEEQBKFKjdk0giAIopyQkSAIgiBUISNBEARBqEJGgiAIzaRiYbzc9yyv7JqVV5/f9SxeDsequsKaIaRiCL/8EnyCOq/wmt8F38thxCZgA5CRIAiiMKkYDj7egakNLVi67EmcWPwHROJJMHYa0eAqYPNKLG2x427fEW01TWqOM4gdfAodUxvQsnQ5HjxxIwKRsXRhrWgAbvSic2kLmu+Wqy9PACoagEsQRPlIjrLgQw8x71CRcfqinBpFJVeJgF5tJYppQ0iCE8QN5UKFIqVeU5RuiyB+mHldHhY0UA2bVhIEcT6QOo7+B5246xMrritKHuNrhLf9Gp07+AqI9g14es1cqUSIZQqmX9PA//EquncdQrEVYqqXFBJhL37e6eNrgSyH9+mfy6rviSsUxjDQvQcHK1X0bNJ/xXUzh3DXHY+hP2aMhA4ZCYKY8IzjaM/DuOudG7H3qXbM0lySM4VE+A9Yu+5V/u9muLpuQWOBj5daw76qSISwba0HA/yfnOse3FaoJntFKznWY5bz37B38f/FXb9+0RDXFxkJgpjQCDPhz7Fmy93F1Z9ODWPX+uwACfu96LRpyLA3sIZ9ZTmF4V1bsG5AqCe4HBs6r9MgyvcxIqOV3Jm5GM33PIw1nz6Kn28LlbxHREaCICYy/Ew44lqDlc0XF/VRaUndPDWfc0qbThBSIxjcOZj9234j5s1QWkXIStNWA5NasPKhFYis+xdsC39d0qnISBDEhOUMjgd2oHtgnsYZsJhTODb4OgKZv+fh9nnTlQeMRBSRw6IhslD97hpBs5HMyKELVEPdakHi/xOsW9+Xv355wTMRBDExGR/Ek/c9BWjxo+cgG/i4GZh+6QUKx6UwHnoDvSIbwV0zHZfW/Mgi1PIQaMA106coD5jjH2Bfbzj7t2pblRnLj7DwziXgAr+Hd+BL/acx8JIIgqgaTmH4pW3YHNPqR5chdyGprg7krha+sJWeS64q5L9LfXWQOjGC98RGsn0hWqpC+deCepsDG+xRbN70iu7VRDX8EoIgjCbxAV7pHczjRy/0eakLSXV1IHxP5kA7WlsmF/99VYfWldTXePeVPpFbrsqMpGU65t0+DyhhNUFGgiAmHCmMH9yD7gHk8aMb+T0iY6I4iz6HWN89UhmLzKsVXb5+DNdqNNT4IezqfjX7t5qRjPWhI/ObW9DVLxqwx/vR1SD83wx09H2m8rk6mRSKD/3DhTJSLsSMeTfCjjB6932gL3/FsLQ8giCqBHm5Wh1IsqjBOKWSwPEDzGPLHpP/+4RSrFbm8H/Kv5fNZFY8f0URZ1GDgXMrlPf9ioU8i0W/n2N27xBTq4t5NuRhVuHYTPnlNOkKfsrZ2pnPZar7iapxKl6XjMy91NcfaCVBEBK+RH9Xi8qsV/xaAd/wqUpfrDLCRqpeVxOQdVPw5CbIfY3wtn8R5RBwsHnWYoXqBvkpjH0RBzAH1zf9kH+vHrNuWoxFAGL+Q/jwnL5LNQdhBs6TkyAnTzQEYFuHjSsaVdwzKXwzdhLfWFfB9UAzEHgdg8ey/ScVP4mPMA/tt1wlzWYXPgcO9ut/jEsAABZMmrUAty6yArF3cOjDb/L/lMy9HMTOwZGiRRjJSBCEGH7DlnP0YCieBDsbgscKgHMjOJYES47A72wCrHNx9eU6B2BTyUYblRZldCEaV6yFx5YWm0BgJ3oGjqcHmMQw9m95AEsyAyQHm3s7XpDLdYg59wkO+eWGK4VE9BN8CoBbNgdXfFfvtZqDpbENGz2L+b8G0dvzF17ldRzD+5/A6iVrsomGtkcQfGF1nmTFb/DhoXcQ+8eFuPsWOzgMoveVD/hEt1P4+P2D+EixT/Gfk4cgJ2L4+NNvAO6nmHPFRQV+iSAbEsPhSLT45Lqi1x4EMZGJ+plDJFKXdgOIl/ppt0n1uUcEBFdTfteHVpLRQdadEfdTejUxR/cgixbyePDtmG23MRYJepnLxjHYHjFUkM5QklF2oNuRFfdTeHGOrexAoetPDjGv3Zq+J2NB5pK4itL3TLFPCa6izLFJFo8EmddlZ4CduYOj2u5xzndqp4aMRJLFQ93MNiFVJicCp1k0tJd5XXcwV/ALA8+bZGNBN7M6PMwfipY86BXHWRb1rzJswC0LJfqfVYlHWMAjHiybmMPjZyFNg7vQjvLB1cN27wkVNDDVwRiLBLrT+wCi69fcJ6N+5oCNeUJxljXkzelnZSzIXJxKH4v6mUNumDgH8+x+VWPb85TQL0x2N6Uw3r8eDYX8uw0d2PLSQIEIh5M4uOt5DOAEvhirKuelcSSG0d/3ArZ0zFaIZHgWfX0KbSSJjFB7zUbHlp0aIiH0XvdR9HUtQcPavwCtv8VDCzTo+2jGgvoFv8afOybjwNr/gRu6+vRFwuhpW3yNoQMhADOx6OqpNeGbzWQJG53QNakRi1Z2oJ0T3vgPnJj8Y1zLafkOoR2Xwxv5Fox9hZBnMWI7tuO15BRcUgsNi3o0LmpHR3tz5p3YicloupbT0C9SGB8KYX/GNTQFts570xFHz/87PouO4L2YUkY7/zlwsHuHkGRJxEPdsMV2oPu1U7j0kiLub0apV8e+RFEmRReyKAHBejKW1rd327P/l2/ZyS+XOKefjdbEzKMYxljE72Y2QY/etSM7SxBr+csiIgQyLpGcSJTTLBp8hD8vilueaoW/Ps7Rw4biJt8YoS1y9PzzUULbng0xj1XfEr0ypFddnGo0TqkIM2BhRrua+UdPs3Qbb2Au72HlOgqCq8PqYaGz/JUKfValT1cnovblV1NO/whLsiSLR/zM7dqh8gzw7ZZxWTLRzN7GHA6byv0S2ltYgbASVgTZe1esq7T8RkLeGEIHyhtCxt+cTKecQEgMJcds7oBs+Z3tmGo3V2okmmXuHtmDbeRDmRxhfmeTaLDQitAnil/6JqMB5rZx2iYLJbZt7n5EtSN61kwafJOjfuYUuVyyz7WDdR9Qdr3k7kewknzkFUXo88XszYj3IzJvnmaj/tUZg6NtP4KxHFeVZvT3jfIv9PKKf6ntvp9EaF8YN21dh6WXVYEmimGcwfE9j+Gux/h8Tds6bFl/AzhJ81gwaeoMzAaH2TMb1KNHMhQQFzNMxjmF8YGncZ8PcJbxvli467H6F22AbyOezJtBWmrbCto94tDD2sEs/STLZUvxxMDr8Dia+Hea4PD4EQo/i1/NVXK9yDOSeeqvQmt7MxDrwaPPlC5nXTYs09D2hB8BjwOC541zeOAPBfCHX/2jrH8BQAqJd19Db0AepnoBLlvYxrvvVPrfu6+hNyDXlp2MllY7OISx+dFehDU/y+LCSEVShCnSR6GkHMlKQsWijgWZe9XEczNJZ2XC0rVYCiX9yF0EBs3cFGc5xV6zzs1VIYkrz4yo9LZVWOpXPfpdCuYg37AWewqkrhurJ8TOVvhqTUGy8SzvS0IynsJzIN+wFvd18ZgpcuHlR78r0nwjUcCdlN9VMpGRZWvqHrwLuJO0ZM7qQNGFoJkSjUTBzxvQtpl+a3CUkJlk7nUNRWMRZSM71hbXp013N0kVEmU7+KlPsGfT45mlKOdcj/u1VL4yi9RR+FobNGTbGpCBK9N80a0cKVHrlGven8HxPVvxoLBk5VZj6/3zDBAfE2oNVErMTFg6q0RqlNq24/3omnUDNscAYDc6Z/4SfbESIurK2a8IwmBMNhKywiWZsLwUEsP98LlXYpnvCAAONpcfA08sxWU1EQ5XKnINfv2DrbQwikjzPjGMft9DuGvZU2m5Y5sb/oGNaDNi7yBTsatSxVWEvYQYAjvfxjGJlTCgbesXYFOUgTHhtQ1tXJWlAxNEmTC558vkdmOP4YYfPJb9m3PAs3sP5lw1Hwsaq0Bc1zILzn1ROE3/opMI7Qto0qrPj7wwShibb/ghNmf+boLD8zz8c1pgX9CoYdNbI4KMdAWLq1gunY5rOCDAb8Q3ZlYKRrWtgZStXxGEFvga3BoLUZk7b5e7QrxDSDLRDC26HWtvu7U6DEQ5kRd0kenZKCcgNqDVd1TmWpEVRrF7EUmKZ8CHsX3tHWgz0kAUQWrYh1ZFF8r3MLNzN9KunO8pu1lafdqKpMiF1wxr2xpEXkaUIAzAVCOh6gox8jvEA1HDevSP18CjnregiwX1C1zYmxEWA9IKm3vgd86Stp+sULuesEc97SevxFVVGNW2BEEAMNVIyF0h5iz7LY1OvBbxpiV9J0gBduBCfH+ySNmR+xkeWtmSuxqQDIha8yikmNl+lkYn9olXjpnXt4h4lyMr06BwzD4nGk25lRrbthaZ1ICZs3VFwhOEKiaOqHJXSAna9hqxLroal5fyi6omCkW2l6MyeOeNHNOB1vYT9gNqE21tayhV068IAih2wm7e02GAK0Qb5/D5kYMIoBnL5kzDd3EKw74VIvHAKnRBCdmmasj86sptpxY5ViwltF9OIZYKIP/dhrTt+U0qFsbLfc+ia77YsKWFEF8Ox2p/78YUziAW/jP6fF2Yn1Oe9U8Ixyr8nJSAeY9H2TbRBIVJwTpeiEZHV7pQDOxwbXVgrtYYeT4KRdH9UfC1C06N0QLZ1HplpHs5aiGcshmxbnS0XxW4NTKrqJyVgBFtazBl61clkorh4OMdmNrQgqXLnsSJxX9AJJ4EY6cRDa4CNq/E0hY77vYdqR0ZjTKQiv0Vj3c0o6FlMZY9eAKLAxHEGQNLjiLoBjZ3LkFL88/hO2qSCrPZFJ+3p4Vs7VoImb5mqbcKSp2Z9PT0d1u1FAKpJBLxuaw6a26RF6XsSFGN2xxFziLR1X5CxrPeDPlSM64FiQGVzOKS2raWKUGWQ6yIq1RrWZK5TzVd0sifw9x2kShKFKVebPy1VpEsh1wavIAuU4lk5SECbDQSZF7XKubyDylLFlcdYywS/CPzyCt/2VzM63Uxm4qypFwaPGsoipef0Nt+lZXlEAbDfJ/X17a1TfbZK+6+yGRMFDWxpPIv1aENVWEEDbF8CtYSWaJKyg6JjESRKrA1VJlOCbm+e6VvRK1RQvtVUuBPePBqqhZBOdAjBy1UfCx0/02UnK9JNOqDaSqFUA5qSSrcUIQi4c1wBT/HWNANDmH07vsANer9KzMltJ+lEbd1/QxcbC+ef+OzIjczL0Sjc5dOf/sZHH+jD72xZri6bjEpTLZWEclBa5WETw1j13oPBoS/7feiU4t+mmGS87VJargP69cJ+mf0P/YAAAeJSURBVGAc7BscsBXc+1QrhVAOsnuYxQZr1PYjlhrF+/sjAGdHa8sU1LcsRDsHxPyH8OEErXBqKCW1nwX1tlXY6gR893mw53h5ojdSsbfw1O/6gEqLQVYlgqaVdqQb+XKBSPGBskz28xpZZGGe8PPqSzwtPp+qto2EEEElRLgI4Y8fDeDN9z/BcN96tHb106pCjVLbzzINbU+8CO+it3Df+hdx1OyZZeIIen69Bo9hHfaeN2KQxWGZcR1ut3Maw5O1D3Y50YoTJnFVB7LwfvUcMHlCsb6EV0PIGPni86lq+C5n1T6zSWCTMffuX8DBvYp1LTfjXz++Hr97yFYBKetawKD2m9QE51O7sfXSF3DlEjd8/cMmLKfPIBbuRdeSpei99J8R2fsAms/XAaoQRRW8l4VRq+bayJV1z/P8krzSL2LkYpPmSBNpohRRTvM2Sojzi9MsGtrLvK47DA4cSG+uWx0e5g8p11AmxBSuiZ49VFqQSn1DUx6xeH4Hh0ijC/NsRsvbt2L1vIvoEwqQSD5hEBeAa74ZzuabDT6vBfULNuLYAoNPO2Gx8HtLj2HzeyM4kQJU91O1zogTH+CVXpF7hbOjtWWyoVddO8hdSGqrg9wa1boLi5WMIJHEwa5H382UayIIonIIe0uB1zF4rFTdpxTGD+5B90A1DHa1xEkc3PV8NmqsYlUckd1D4dqwqvXyogd9utMEMeEQpEkK7EtokVdJhPDMoz0iv/pybOi8TmGwO4dY3z0qIoWt6PL1Y1gS2CA7XqIRJq/7cU9p5WMNRUsEWQqJcC8e3RzOvqUWWhzrQ0fmd7agq//L7P+N96OrQfi/Gejo+0zXFQsRbFx7GxbqqUxpiguMIIjKImQD502cku015BwrSxhTkuuQfikLeWwMsDKH/1P+vaxET64/XDheybcvXFsVSoBI9hoU9iQkmdiFZUzOhjzMqnIP0vsfhdo9H6VK6NR8Mh1BEIpMugq3tM8r4HK6EI0r1sJj41cTgZ3oGTieXnkkhrF/ywNYIkoYs7m344U1c/P4tE9h7Is4gDm4vumH/Hv1mHXTYiyCUv5N+njrGhce4OT1ys8hfvILwN6GW669WE8LmIelESs2roMNABBDoHcnBmJnAKSQGN6HLas7sS7jnrPDHXwaa5rVfkMK34ydxDfWVXA9kOsiTMVP4iPMQ/stV+kLnRVcTVqTJJXQZVoIgqh+eEmIQhEtucKH8pdGnStBLFIyG87KfuRcx9kQ81itzOEP8ZIfohk3P1u3ekLsrN7fbyqnWfTAVqnIZo6WmoN1HygUkcevphy72RAvWpldNfCrgIz4ZrEIUU2lRaORkSCICctpNupfzTitCsHxCAt4HCItrybm8PhZSKOacq7o4xiLBL3MZeMYbI+woOw86eOXM2/kP3NDNMeCzMXVQqhtksUjr0uFJDkH8/hD2sQjk0PMa7emXVaCzlMmVDatl6VbTDE5wvzOppJ1tsjdRBATlgtwmd2BNTP7cN+Tg4WVByY1YtHKDrRn9rL/Aycm/xjXclo2O4XiVUBs8w34QV0d6up+ANv2k/hvv9yLaPC3WCA5D3+8dS6uvvyirCRM7xsIjZ/jk/fMKXlsLBZMalyElR1LsjVMYt9ictM/gNMyun7+N7wV+BEWXT0VFiEqLRbAvtBJYPwD7OuN6szSTmF84Gnc55sGz8a2kjTOyEgQxERmUgvu2bIOMzd345nw14WPl1T2iyHw4FZel2scw33/ii7VgkNC8SqhbvlXCHkWI7ZjO15LTsElOSNN+nhu2Rxc8V0A9dehc8NyILYXz79xDNGRY4iVoeSxMVgyRi7Nbjy46c84ngKQOIq+9Q+rFBxKYXwohP3cTzHniosATIGt817YEUbv8/+Oz6IjeC+msyxxIoRnHt2FmZ6HcY/qfohG9C9CCIKoDfgII41Fb5KjfuZU8rXn87ELrhKR/zyTmazk7hgLMhcnjoISHW+7gzlsXI3VrOBde0p1dFQLePHy6w4/iwpvZSKnbMzhsOnM0k5HpXGOHjZkQJEjMhIEcT7AV+vTNnDI/eyF9yYUi1Dl+Njlx8vqiQg+9JqV/hhjkUB3djO70N6EeD8i86bU2BRvKIUJQe4ekF7I3UQQ5wOWy7Bggw/PTfsIb48WkmC0YFJjK9ZuP8zX2T6M7Wvb0Ky6N/E13n2lT6Qmy5Pxsffg0WdCIjeVyvGWH2HhnYJvvxb2I+TUo3HRr7A9ytcnj27H2rZmlb0JQbbjG9n7F+CyhW2860qHamziU7wduRLPveCW7QGVgCGmhiCI85SzLOpfJUm4y86MpZUP0+GssuPl4Z2akgAnAFE/c2TazMY8IXGqnJDEWB012OsYY8wYc0MQBEFMNMjdRBAEQahCRoIgCIJQhYwEQRAEoQoZCYIgCEIVMhIEQRCEKmQkCIIgCFXISBAEQRCqkJEgCIIgVCEjQRAEQahCRoIgCIJQhYwEQRAEoQoZCYIgCEIVMhIEQRCEKmQkCIIgCFXISBAEQRCqkJEgCIIgVCEjQRAEQahCRoIgCIJQhYwEQRAEoQoZCYIgCEIVMhIEQRCEKv8f2fdI1DkLFq4AAAAASUVORK5CYII=;" parent="1" vertex="1">
          <mxGeometry x="588.94" y="150" width="365.59" height="120" as="geometry" />
        </mxCell>
        <mxCell id="etoiEx8Ak2_giqTQEWYt-23" value="&lt;font style=&quot;&quot;&gt;&lt;font face=&quot;Lucida Console&quot; style=&quot;font-size: 18px;&quot;&gt;最后如果满足 ratio-test的条件：&lt;/font&gt;&lt;/font&gt;&lt;div&gt;&lt;font style=&quot;&quot;&gt;&lt;font face=&quot;Lucida Console&quot; style=&quot;font-size: 18px;&quot;&gt;则利用式E.7.19，根据lambda算法得到的双差整周模糊度，计算除了单差相位偏移以外的所有状态量（如：位置+速度+加速度+电离层+对流层...），并存入rtk-&amp;gt;xa中，这一步实际就是利用lambda算法得到的整数的整周模糊度对其他状态量进行修正。&lt;/font&gt;&lt;br&gt;&lt;/font&gt;&lt;/div&gt;" style="text;html=1;strokeColor=none;fillColor=none;align=left;verticalAlign=middle;whiteSpace=wrap;rounded=0;" parent="1" vertex="1">
          <mxGeometry x="990" y="260" width="215" height="280" as="geometry" />
        </mxCell>
        <mxCell id="etoiEx8Ak2_giqTQEWYt-24" value="&lt;font style=&quot;font-size: 18px;&quot;&gt;&lt;font face=&quot;Lucida Console&quot; style=&quot;font-size: 18px;&quot;&gt;xa=xa-Qab*Qb\(b0-b)&lt;br&gt;Qa=Qa-Qab*Qb&lt;/font&gt;&lt;font face=&quot;Lucida Console&quot; style=&quot;font-size: 18px;&quot;&gt;^&lt;/font&gt;&lt;/font&gt;&lt;font style=&quot;font-size: 18px;&quot;&gt;&lt;font style=&quot;font-size: 18px;&quot; face=&quot;sJ-V-bxbbbgbbD7MD0d4&quot;&gt;-I*Qab &#39;&lt;/font&gt;&lt;br&gt;&lt;/font&gt;" style="text;html=1;strokeColor=none;fillColor=none;align=left;verticalAlign=middle;whiteSpace=wrap;rounded=0;" parent="1" vertex="1">
          <mxGeometry x="990" y="190" width="230" height="60" as="geometry" />
        </mxCell>
        <mxCell id="etoiEx8Ak2_giqTQEWYt-27" value="" style="shape=image;verticalLabelPosition=bottom;labelBackgroundColor=default;verticalAlign=top;aspect=fixed;imageAspect=0;image=data:image/png,iVBORw0KGgoAAAANSUhEUgAAAZEAAAB4CAYAAAAzHc+pAAAbOklEQVR4nO3dfXBU5b0H8G8iY1EDZJhSOQGnTDYa7IQqLMUR6WUR2egglpKirdSNTaZCxV4rhc2EolVhLpLNhGunL75MIhFwQO5m0lqUhG5Aizrh7uaqUOOmIRNq2MVCKSERFbL73D/OOcnZze5m9+zZzQvfz8zOQDbZffacs8/vPG+/J0MIIUBERKRD5nAXgIiIRi8GESIi0o1BhIiIdGMQISIi3RhEiIhINwYRIiLSjUGEiIh0YxAhIiLdGESIiEg3BhEiItKNQYSIiHRjECEiIt0YRIiISDcGESIi0o1BhIiIdGMQISIi3RhEiIhINwYRIiLSjUGEiIh0YxAhIiLdGESIiEg3BhEiItKNQYSIiHRjECEiIt0YRIiISDcGESIi0o1BhIiIdGMQISIi3RhEiIhINwYRIiLSjUGEiIh0YxAhIiLdGESIiEg3BhEiItKNQYSIiHRjECEiIt0YRIiISDcGESIi0o1BhIiIdGMQISIi3RhEiIhINwYRIiLSjUGEiIh0YxAhIiLdGESIiEg3BpEU6PNsx70bD8IfjPYbl+Bvegb3VnrQl86CAQAuoO3gdhTnZCAjIweLynbC47+U4Gt8ibaa+5GRkRH9kbMRTReiHoARIej3oK6yGDl5lfAkfCJ64aksxcamU4j6KYOn0LSxFJWe3uQKmjAjzjFRfBhEUmDc7PuxDs/jwfIaNLVdCHlOrrh+iu/WzkDlmtkYl7ZSXYLfU4fK4jtg2RXAsl1e9PQcxpPf+Qy/MZtRXNmAtt54K/1edHk7INl2oLXnMrpd5ZBggs35DwhxBi67GZiVh+lZI/Ty6m3DwcpS3PPfB9C8/yD8ul4kC7NX/RDYvBrlNU1hx0451j/5MWrznsAac5Yx5R6SkeeYKE6CUqRbeF17hMNWIAD0PySbQ+yrdwtfIJ1l+UJ4q0uEzbFHuLzdMcpaIqq9Xwz9coFWUW2dL+yuM0KIHuF2WASwUvnby8LnXC0ku0tEeqcRIeATLS0+EVDLbnII92Wdr9XjFa59DmGToDnPBcLm2C3q3T6RvtNs8DkmihODiAECPrdwOmxCsjmFb7gLY5DLbocwWeyi2uUVPbF+MdAqqq2SgLVaeNMaGMOpwQzRH4POTwJBJOATbqdD2KTVwunTG3FGmMtu4TBZhb3aJbw9w3ryaBQbof0No4U8trE4ZyOac8vRVrsCkvJMn6cSef1jBDkorPmkv+889Ln7UdP2ZRrK2gtP5SLNuIX2fcOeK6xBx+z1aHvtPnTXPohlscZ3PvsYbzf6Id06A1PjuZqCfnj++DLKFuVoylKIskFdQonKgnn9IQj5xijyQ3N+EhH0H8TGxd/F+uZc/Krt91ghqZ2QiR3TtpT3JCVYnkwz1rftQFF3LSzLNqOJ4yakxzAGsFEv0OUUJVKBKHF2Rui2OCNcdvPAXXDInbr6XLS/TZFul7D3d7tIwlrdOvDe6nPSWuHs+mrgb3qahcNiEhZHc4QWSUB0u8qFBLPStRVbwNcoyi2S/P6WcuH0dgvRc0xUK11+UolTdKX1hjiOlkigUzhLCqKXTc8xTSVd5fm3cDuWCliqhJstEkoQWyJ6BU+i/qlf4617nsGzy7859AyFxgM40q7eFY7HpCkTAGkZVt11wzDNbvCjce97aFfvjq+dhCnXAtJDK3DXtKsHfi1rLh558n54NzyLFzznw17jIv7e8j78yEX+9CEGj3uPourBYmw97AektXDuehorbpoIZM3EPd+7Qy5RzR40tKejVaYI/gsnW88CF8+h+2KkZsIlnKp34LG3FuK3z96LaUOeqDiPadrEW55smB9ZB7vXgfUvuJHuuWQ0ujGI6BRsd+HFmq/hoVX/Ebly6TuJFqcHksWC+QCAI9h7pFPu0gp24cODXmDJXNw8MX2noO/vLXD6TbBYzPIPNIEt2PEhDp4wYcltN2JiyF9lYqLFhi3WFlS93oKQuWa9H+PQfi8g5WHG1FiV5Jdoe70SGw77AUiwbnkMyyNWqi14+/iZJD5hvD5FXXEeMq6agaKa44B/KxZPugoZGWtQ59fM9Q12oOHFOiBGENB3TFNHd3kmzkfplgU4XFWPoyN8ajaNLAwiunyJ9iMH0BjjDrz/C7tmDb5vAkLuCj/7GG83AtaF38L1aSxzx4dHcQJ3Yc3Pvw8TgIHA1ofPjh9FI+ZgYcGUwX+a+XXMuDUH/p1/gVutYIKfoKZouRwY/Fux+Of10afK9n6EP+08Iv9behhlP7hJc+H1oef8OeM+ZlxuwIra9gjjJi9oxjuAYPt72NsIzMrPQeSznMQxTYlkynM1ps7Ig+RvRIM73eeDRjMGEV3kdRIwzcMtueMjPB9Eb1c7jmEOFs6ejzlF2rvCi7jQ6sZB5ODWGV9P4wlQymydh9l33o4iCRgIbOfR2uyO0aLIwvT8XMDfjs7TyuBr5kyUNPjiGrQO+o7j4GElxAxqfSnlAgBkY2r2NUZ8WAOo5zAfS26ZHuU8JXNMUyGZ8mQia3oeZsGHDzrPRl9ASRSGQUSXL3D+dPj4gNY5uBsa4ZfyMGPqNFhKH4UVgHxX6IWvsx1+zMVtN2cn+L7hs29iPIrrQlsGFz5Cw06PPIsqez5Kt6yUf954AEfaPkXnB74Y3WvjMCF7MoAzONeT6NJu9Q4YAKTBrS+l208Wx9hK2gTx+flzsRciJnVMY+jzoDIvjnOckYfiuk8NK0/mhGxMhR8nzn3OIEJxYxDRo++f6Hj3RPTng2dDvrCZefPxgFWCfFdYi1dcLYB1HgquT3S9ehzTWKO0DIKnO/GBX+0PH4+8BXcPBLZXdsGVsu61L+Hr8Cr/Htz6krv9lP9Y78aCvIGWXchUaG0aFX8ditWf60pZkmi5I0vZMR1nxvr2OM6xaEftihtSXx6iGBhE9Bj3DeTeYYr+fPiYR+YMLHhggfxc4/OoeO3E4HUVkdZPLCpDrcdvwF3h4P7wkMBWUYXX0tK9NgFTJmm7/87icPXvB1opD8xHnqYA48y/wF+dq+X/aPvqpfvwnHM1gJWofvMxmFOSO2Y8cnLzYzyv75gG/R78saYMizRriIzJbTVSzjFdaXg96XINsqdmR5kaGlTGPLR96dq7QgCIMEMm6MOhX/4Gp+/bB19AINDlRIm3Ag9vfGtgiqZuSn+4dgxHG9gAIGb3mjr4PQWTJyRaY1+LG+fcHmG8JIhez05srlC6sqQVWF2YG3ZByuU2rbPjccmDim1/UhbsKeUJa7kYKxPXZU+GhB6c6Y407VjfMQ36DuGXm07jvmYfAuIrdDlXwFtRho1vdSR5s5DsOQaCPedxGhJMk69jxUBxG6ZrZagssDlYVPYy6praRuic9QgDzargp/jL7jcG9aUP3BUCiDRDZpwZ69uPofaJOyBlApnTvoOlS2K0dhIQPPUOdu/0hP00LLDF7F5TBmx1DRJnYuK85VhnkQB4sd/5PvzBS/Af/QPWLluHw/Kbo3xX+eBpv8Gz6Pzgayha+hge3bJSM131DI6/3QLTkluQm7IrOPZAs95jOs68Hu2+WjwxT0Imrsa02+/EEgNKm/w5VicSjOTWymivN8aoNC5sDPOV6HKuFRIgIJULV7e6UjYgerwHlMSFBcJWfSx27qZhEvBWC+ugldph+ZtCVkJ/IbzVK+Wfh3zeSL4SPtfTwiKViOrWJNMYXnYLh2kgf5TJ4Rb9RVLzXgGxEyYqK52TSaoY8DWLHXbr4HxWkk1UNUdOVCgfYzlXlfxvpQzdLmGX4lslnxTl+Az63EYcUyGECHQJV7lVSLYdojWZleKGlEfJojDktTncRne9MRYNYxBRU2ZEvrjVSmPEXtRKOgzjEw8aGEAMoZ6npcLh/nfyr6ae10GpYMLJ2YAHfmegkjvQuFWYkI5EiGqFtdL4zLdGBRCjdLuEXZKipLeJ5gvh3bFFOPYdSmMCx1Feb4xBw9hqvYTTne3wQ4q4mCtz6gzcKiFyl9FIkHkDrBvWw3ZsO7bVnzRoSuQFfFLzM5g3A096/oCSmela5xxDrxsvbX4d+Y6nsMac6JTkwUK69Y614Li/F/6mZ1BYWodTIQdR7uMfmIAwGfPuXwWLfyvutpbjhK7ZbYm6GtOsa7DF1opN294MK18Seo+j5iffw2ash+eVYswc9n1XzsPzUhUq8jegcs3cKAsrowh8iA0rFyF/wi0ortw7aP8c443yemMMGsarV11kNpL7YGPJRNbMH+G5XT9AR9Ej2BRrh7u4XIK/aTt+tuka/HZXOe6UrgYuNKEsb/h2CAz638X2tY9i/7wKvJho5RJNZi4KVyvTj/2/Q9H0CchZ/B7Mq26DpL0ILnyEhp0+TUWRiazZ9+AhJQCldjxEI6sADz9XhYc77Pjxpli7VcYpeApN//VLbBq3Ebu2LIGUGcSFpo3IK2tCqqvfyOXx4+j2x7Fs/7fhfLEU5oQC2njc9PDzcNfvhsMGvLrhh1icPwk5xZWoM2RWYSSjvd4Yg4atDdSfUTRSs3OgyTr8+1QMTd1PxJTMRkwh2VcRZVwlfeLeT0QPpSsH0cZENP34gEU43GoJEssabGyZlf1ETMl0k2iu67BHyDhGuhi6n0hA9HgPiX0O28Dns9hFtdEbsI2hemOsGLYg0t93Gelk9zQLh0USSLgfXjN4nfAjLG02EenT4xUu50vCrqb9h1XYq98Qbl/y6fBTU29QMoapNahOJwxfYHYBbU17Ubm2FBu8S1DV/DLWGdAPT0RplHUT7lzxU2w71Amf+w1U24GK0mWYm2NOctyE9cZIlCGEEOl/27NoKrsbiyvC57UDks2B36xYhDuWmUP7yIlo1Ar6PXjj3UOo+88NeNUPSLYq1P6qFEtuSmTyCOuNEWlY2j/9fd6aqZP9O9yN7KYodHWV8cHH6HwYrv+7r6P7OIX1RsDnFvXOfaLabuV4SoKGJYhE69eM2d85Qgz3l5oPPtL5MErA5xb1+xzCpkwekWxVotGb2DSUlNcbyqLNZBbVXomGoeGn9mtiUBLC/jneIVvJjiwingy6fPAxRh7JuQS/58+oKSvEVTlzsXxlLbBuD1zebvhqn0iwK8uAeiP4CWoKc5BRWKPkYAt7uuNDHDxhxkOF307bTpRjwTAEkRiLhbJykD9LAtABb5ee7DdD5daJ9chBYc0n3EeBKFm9bWiqexlli2YgZ+4ylFYA9uo34PZ5ULv+AdyZUPBQJVtvBNH7f29hZyMGZYuWKbuVSlYUzp2so3xXrvQHkWAnjuw9goiLhZRtWMHd1YhGmSB62w7jfyqLkTMhH4uLHkEFHkJ1vRu+QAO2ldwLs5TEDo/J1Bu9bThY+RPcNHcdDsOPxtKbcVVGBjIy5qKs6az6S/Iixll5mB5pwWXvJ6grK1S2aNgOT28fetsaUFk8S/7ZoNZNEL1tTahR/yYjAxmLNqJOOzMt6IenVrstQAYyMgqxMemFy2km0q1/UV2kfEQD6zzGfL/kZbdwLH1auGLMnQ/4GkX50iqDFxt2C29jldI3LQmL/VVD5u+PRuoiUUnXgs4e4XaUiHJXV/TB4UCXcJWXaBZLGmGEnb+AT7jrdyuJD9XxDodwuiMn1dQt6XrjH8JpMwlEy7mm5A6zVreKQE+rcNqt8vF1NIueQKuoti4V5a5O0eVcLYD5wv7S88Je7hTe7r9FSNLZLVqrS4SEAmGrOiJ8gYDocVcJS0j5/i3cjqWaxbZKzjyYhM35D6OOWlqkOYioBxci2myKgQRqa4WzayxXbspFE2lVeP/qaCOTMH4lfG6ncNgKhGRziH0ur+jp8QrXPoewSQXC5jiQwKrlOBZ1juQEeD1e0egoEVb7FnlBnM6sAAFfoyi3LI2w4ls91hYDs8kaef6Mor0OCoTNsUe4Ehwsj48B9YYahCIOvqsr3VeKanezqLZvEc6/NcqZkW1O4ev/Pc3ntVQJd8TjrQaM0GSWavkGMhMoQU177QVaRbXVavBNR+qlMYhEqngiTPPTpv+IkSZ8bIiQKkL53I59+w28w/xCeKtLYnzJu4XXtUc4bCVxZquVM+rKGWgvK19A9Q5KybY7gmfYiYBPtLT4REBN3Z9Mapn+ilx7XRcIm2O3qDfsbtzo82eUdGTxNabeuOx2CFPUloryHtKDwm7fIgchbcuk//eUazvWdGI1u7d6E6VdvR8S4JSWyEhoTSYp/d1ZV6j+rpOQO5uRK2burECrqLbOV/JXqXuoqN0Mcgr39HdHhu3lEukx6NgnEETU1qGUjhT0BjA0L9ZopwaiKDnX+tefFIgSZ6cIaFsm2qCs7tsS6wbJ5xS2sOtOsjnEPmeEQBvwieYq9QZS7foy7EOnDYNIyql9nVZhd7aGVMjq3VGku6vQ54zYzyK8ktW+Zthzypck4DsiqmxmYSlvjH5xq1/AeFseAZ9w12vzKkHIuZWGo7KLL4jI3VYmYbE7w8qY+DFNuqyJvJdaSVlij72NfWoLIvL3qH/DsxKn6NLuXRNlPUqsGyT1e5tIQk35e1YQPciNcAwiKRbocooSSb3DCade3JEqGvW5aH+rQ0im4LCmen921LA+5Z5m4bCYom9WpNx5xdPykCtjJXhYyoXT261Zcaz9EqdLHEFE6Z6IWjY9x1QvXe+ldJtE7cO/AvS3NCK1IiNsunbZLRym8K4s9fdir7SPFkQCPrd4Q+3evOwWDlNoQJP/bvQNqgsxrJtSXQGCJ1H/1K/x1j3P4Nnl3xx6PnXIYqnxmDRlAiAtw6q7bkjBXGw/Gve+h3Z1LuG1kzDlWkB6aAXu0u51njUXjzx5P7wbnsULnvNhrxHEhVY3DiKOBVq9R1H1YDG2HvYD0lo4dz2NFTdNBLJm4p7v3SGXqGYPGtK5yDT4L5xsPQtcPIfui5EmVV7CqXoHHntrIX777L2YNuRJiPOYGiLe98qG+ZF1sHsdWP+C+wrfe/wczvdcQm9bHcoWfR+VnvMAzsHd0Ai/dQXumy0nbZQXHeagAP+L57c3KXvIXMTfW96HH/lYcsv0qN/HcTfOQZEEnNj/Z7zjvwQ5OWQNyh9cjX0f/gsX+1//CHbu+Kv82sFTeMd5ECcwE7O+OSEdB8JYwx3FxrLI+7BrqGkWLBYxP/zuUr17MnAMRb3bsVjMg7pE5LJGuROKttf4oPGQaLSDo+F3cso2uIBA2u7E1Ome4eMmYXeqUT/3AN3HVAf976UOHI/gGXMppXYpR0i5MmgAXTO7StuNG7M1E/Ze7lc13bWSsNirQyZEBHzNYofdGnrtWexih9HTotOEQSRl1IozegXb/8Xfs0cesNN2afmcwmboHidqeVaLPc4tyniL+vpqRR6trAP7m4dUQur+DUNVTv37PESa+qsNMCOrOS+fn1jnIJljmqhk3msYN/OiMY/dWSmjrIA1zcMtueMjPK/mApqDhbPnY06RWf5x4wEcab+odBMZuQWoUh7rPMy+83YUyfvTKl0i8n7mkPIwY2qkbpcsTM/PDd23OvgJaoqWY8NhP+DfisU/r4c/yjsHfcdx8LDy7JK5uHmi9hOp250CQDamZl9jxIc1gHp+YnVfJHNME5XMe2Uia3oeZjETBKUAg0jKfIHzp8PHELSUvlgpDzOmToOl9FFYAQBHsPeIF77OdvgxF7fdrN1cpxeeykXx5QIrrgut1C98hIadHjl5XfZ8lG5ZKf+88QCOtH2Kzg98ESp41ThMyJ4M4AzO9fTJP8qciZIG30Cyvlpl3/RB+vDZ8aNoBABIsC78Fq4PefokWpzq/hC5yJ9uyE7uBgji8/PnogZGAPqOaZ8HlXnx5HLLQ3Hdp8m9l0bmhGxMhR8nzn3OIEKGYhBJlb5/ouPdE9GfD54N+eJn5s3HA1YJ8t1lLV5xtQDWeSi4fpzmj7JgXn8ovgysYZV68HQnPvCbsOS2GzER45G34O6BoPXKLrgaMbiCN8SX8HV4lX8PblnJg4zKf6x3Y0HeQKutz1OJPLVSzdmIpgtK9eevQ7H687xKePoML3RYuSPTdUzHmbG+PZ4Muu2oXXFDcu9FlAYMIqky7hvIvcMU/fnPPsbb2i9+5gwseGCB/Fzj86h47cSglNf6qa2BOVhYMAUAQoNWRRVeM7TrLJoJmDJJ27V3Foerfz/QSgnLrjrO/Av81bla/o+/EQ3uc/K/pfvwnHM1gJWofvMxmLVx1jDjkZObH+P5dB7TkXL+iAbjNZcy1yB7anaU6aPq1Fhtf7v27hIA1LtOIyh95trxGW3QAoBBXWdafeg5fw7AFEyekGiNfS1unHN7hK6uIHo9O7FZ3epUWoHVhblhF6RcbtM6Ox6XPKjY9iclU6pSnrCWi7EycV32ZEjowZnuSNOOkz2miUj+vYI953EaEkyTr+OXngzF6yllIgxGq4Kf4i+73xjU3z5wdwlAc9eZrOCpd7B7Z/i+1GFBa1DXmZYyqKtrkDgTE+ctxzqLBMCL/c734Q9egv/oH7B22Toclt8c5bvKsTx8LUXwLDo/+BqKlj6GR7es1KyjOYPjb7fAtOQW5KbsCo49GJ38MY1f8u+lThJga4VSIM2zwa4okdeJhKWoCFktrZnuatScfjXfj/J+IStp++e+D7HiXFkNnUw+rIhz44dIsikfP3lefkjKiW6XsEtpmK4abZ2IEcc0Xoa8V5Qp2kQGYBBJJTWj50jOaDukCGkhknk1NWX3kPmklLUP/b8zUBEeaNwqTEMu+jLCV6LLuXZwIr7RRllQFzV1DVES2LJNpcwbYN2wHrZj27Gt/uTonFrZ68ZLm19HvuMprDEn378f0mV3rAXH/b3wNz2DwtI6nAo5QPI4wMDkgsmYd/8qWPxbcbe1HCcM6iqK7WpMs67BFlsrNm17M6x8o8V5eF6qQkX+BlSumYuRMoGaxg4GkZTKRNbMH+G5XT9AR9Ej2DTKtr0M+t/F9rWPYv+8CrxoVAWUmYvC1cr0Y//vUDR9AnIWvwfzqtsgaa/GCx+hYadPs592JrJm34OHlACU2vEQjawCPPxcFR7usOPHmw4qeZRGiaAfR7c/jmX7vw3ni6UwR9r2lShZw90UulKo+4mYRsm2vzH3E0lWoEu4yq3Rx0Q0ff2ARbPT2zCm7+jfbXKUjCtwPxFKkwwhhBjuQEZERKMT27dERKQbgwgREenGIEJERLoxiBARkW4MIkREpBuDCBER6cYgQkREujGIEBGRbgwiRESkG4MIERHpxiBCRES6MYgQEZFuDCJERKQbgwgREenGIEJERLoxiBARkW4MIkREpBuDCBER6cYgQkREujGIEBGRbgwiRESkG4MIERHpxiBCRES6MYgQEZFuDCJERKTb/wPoxAl/1sI0OAAAAABJRU5ErkJggg==;" parent="1" vertex="1">
          <mxGeometry x="930" y="550" width="300" height="89.78" as="geometry" />
        </mxCell>
        <mxCell id="etoiEx8Ak2_giqTQEWYt-28" value="" style="shape=image;verticalLabelPosition=bottom;labelBackgroundColor=default;verticalAlign=top;aspect=fixed;imageAspect=0;image=data:image/png,iVBORw0KGgoAAAANSUhEUgAAAZEAAAB4CAYAAAAzHc+pAAAZUUlEQVR4nO3de3BT150H8K/VDMtkXW+GYdpcQzcsZm3aNXnUHjKhtBGGyG2JU4ZHsoVYduSZhcTZZMuAHDNm+2IhII8ZWsjSzErlkZACkccNk00QleOZUDowUl6wY8sFCokjkUkmiW1NQgjW2T+sq7esq+sr6Yp8PzOeAVuyjo51z++cc3/nnBIhhAAREZEKhkIXgIiIiheDCBERqcYgQkREqjGIEBGRagwiRESkGoMIERGpxiBCRESqMYgQEZFqDCJERKQagwgREanGIEJERKoxiBARkWoMIkREpBqDCBERqcYgQkREqjGIEBGRagwiRESkGoMIERGpxiBCRESqMYgQEZFqDCJERKQagwgREanGIEJERKoxiBARkWoMIkREpBqDCBERqcYgQkREqjGIEBGRagwiRESkGoMIERGpxiBCRESqMYgQEZFqDCJERKQagwgREanGIEJERKoxiBARkWoMIkREpBqDCBERqcYg8lUXeh+9m+pRUlKORZtOIBAqdIGIqJjoPoiEBh2oX7QT3mCa1i10Gd0tLXAMXs1vwW4EoffR22HB4m0uAAH0bWvC6g4GEiJSTvdBxDBnAR6aYkND6y6cGByJ+UkIwcFeONr/DSte+SZm3TqlYGUsSsEBdLdbsHibH+auk/AP98NpncdAQkTZEToy5neJzdYDon90LPa7YtTTJYyAQMovk2h3D4mxtL8146uK0f4DwrrZJfzqf4k+jQ0J9+bNwt4/HP/90bPCbq4WMLYLpy/2Z18I/+ndwixJwtg+mfoYFv32zWLzpP4uRFQMdDMSCQVOoGN1Oy5X3YWZpbHFMqC05kkc87lht5pivl8Ns+0PcPuOYmvdjEkMqQwonXkXqi6331g98PBU1cOXK7BgZmnMD64hcOZV+OZ1wndsC5ZXlsX8bAqk+a34vbcHzTiDvwSuqXzxUsxcUIHLD1vQ0fs+bpQqJaJkJUIIUehCIHgOjtZmHJz3DI5tmI/SzM/IQRnOoLPhMZxt3Ic9lurClEEzIxhw/Ax1B6tx7NiTqCktRF8hhKB3FxoazqGxdycsc8syP4WIio4ORiKfwrv3KbS8uwad62qTGu9QwIvuziaUl5SgpGQemhznEBz/yfg9kbZ6lJSUoKSkHPWOAfW93tJarOtcg3dbnsJe76eTeUMFFkLQa8ejLR9gfecjKQNIfurUgNKaR9C5/gO0PGpPnxhBRMWtsLNp8v2OGmF1f5jwM3l+PvEeyCph9w0Lv/sXCfdJUv2ObH0o3NYaAWOX8IwW6Wz+6GlhM0pCsrrFcNIPC1Cnw25hlSRhtJ0Wo5P7TUSkQ4UdiYTeg+sZB/pMj6HFOD3hZx+iv+csbt3dj1HxIdzWmvAPhuF76Zdo3j8L/z36JYbd7ZAAALNRNXOyk1DTYXxiEyw+GzYdGSzCufxreN91AF19C7GlZQGSJpAKUadlC/HE7uXwbezEEaZhE914Che/xsSwu11ISnq7Y/3CbpKiPeTISEH+HRCQ2oV7WIvRQ3g0otnvy6Nht7BKSDMKSZDPOs2mXERUVAoXRORGzGQXvkztVLgRgmbTVhmK5rMLEyRhsvcXUYrq58JnXxWemvo888PzWqdZlo2IikaBprNCCL75Cg66ANNDCzAnQylCVy7hrUD4P5IJ9bXTclo6w5wFeMgEuDoOoG+kSCa1gu/gpYMnAdMPsXDO1IwPz2+dTsWchT+ECUfRYT+FkcxPIKIiUaAg8jHOHHkefViIhxbOylCIqzh/8lW45P/Om5OwjiQHDLOw8KGFQMCF456Pc/tamghh5EwPuvqUBeVC1Ol4YJYQOPgneIolMFMeXEPA243OpnmY0+nF9UIXh7JWmCAy8g6OH/Qq7DUHMeS7GP63pLCRnCy55+zFju0vYVD3bd7H8Bx3IaAoKAMFqdNIYN6H7S8WY9ICaS0UOIP9bQ0or12BjQfO5fKF4N3fhkXhtPVFbQ70Dup9PPwRejf9B3aeCSi8Vq4h0PtfaOo8E07Xz58CBJEQRjx/wsGAwsZLDjgAgHLcOWt65kIHB9Atr3VYtBPe4HUEB4+js2ne+PfqHRkDg9xzhutVnDyv86yirIIyVNTpCAa7N4UvwvvR6f0UCA7iRGStyYMKNsCUA3MArsOncJ5R5CvturcTlaudGKvfCZ9zbY5eZQSDJ3aiaWY5apt3oA8AEEDfjhYsrvoemjq74VW9K0OulaGq9jpsd5vwSOchdPcOpg4OwUH0dh9CZ1MNyh++iHvvn5v3hdI35fn1EO01l6NRQUCIm7tXknIaGoBjxQacb3sWQ3dvw8wVL+LIC18D/jYTLb89jGlXlqDjzlm4NdMLG6Zj1p3lgOsifENBoFJB41wQclAGpEYF7wvZ1ulVDDoexdrzzTg0VIunZq7A3iPPoxSf4hstNvRN+xxVHXMUbYBpuHUW7pQA19nzGAqGUFmmg7WuVBA31WzA+dcA4DoC3Vr/9hEM9r4I+687sKMvAMlsw9GffAf/dM8S1EhXMdj7Gs5dOoXftqxA7cZqmG2/xBNr7keNpKdNXKdgxvKt6HM+jbUr1mBFpocb2+HseyphG6M8yfut/EhWkJJMHTmrJ5xFpCSTK9VzVS0ejKa66js1NZySrDibTH2djmetQQBLhc3zySTKmvsMOyoWXwq/c60AICpsHvHlpH/f58JnXy2M1meF0/ma8E143X8h/J6XhfOoTZgrdJzSP+oTbufzwmauTtp81mo/KpxuX0EX8uZ9JBLpBWd9PwSQlIwgkp67FLY0239MzIDSmXMwD4DrrUu4EgJ02XEOfYRLb/kBVfdDsqnTEIJD53EWEoy2/8S6mltUFLYUM6tmAziJty59hBAUTE2Svl33onNuLTZeyPTACpidr2H/8m9p+OLXEPC68MqRF+Cr34XtddMBTEWl5Xm8puj5UyDV/BjLa36M5Ss1LJbWSitRt7wSdctXY8P+bJ4YwkhvB767fxp2PLEGy2qknFxveb6Go1lByhqv6ajb7oEYX88C//a65FXY6Vy/jDecXsC0HA/cpabBi06/6Pm+SOj8KRx2BQBJ2ZSS+jr9DH994y8IYCEaH7hd5bzrFNw6aw6kYrgvEgrA+8cXY/YRC38taoPjj1797vac73LfVIMN50Xk85T+67y2ASQ4gO62BpRveB2o/zk21yXseDHSi7bykvg6SHEvNDToQH3sYxTd38uXEEZ6N4XvO5ZMsJ/dVQw6HkzxXg0oq3sK/9s0Dac3fB+L27oxmIM97PIcROJ7wbkUuvg2TlzIdvSSTvi+iO7Io4N8vNQQ3j7hyyJYZRC+L6I/1xA4s2f8ZuyyVei48kO4fMMQQmDM70I7DqJlWS1qHtmPAV2Vv1jLrULwHBytq/D4ldXoP7YNlrrK5E5NmRGbj3XBGPu9FJ1BQ+XDcDhbx7f5kSyw9/8PLLq5/2lAWZ0Vx2xLY76XqgM2FZXNNjgt1QAAybwP/c5mVBoAoAyVdRZsP9aDxis/R1XDLs03Q81vEIlMvUiYV1WewyyC6NTLpF6ntBxV8yQA/vD0i95cw5VL5xEAcr/WI+iH72xgkq8TnSJE4DwuXdFbZswIBhyPoubux3EgAMDYhWN7nsR94ZuVBun7aG5cCAAIHGjHo3s9eU+nTK1Yy61C6DK6n/wpWk7ci91bf4q5aT+LBtz89X9AfHcnVWfwJnz9lvF6khrXYKXujiyYiq9Puzn+W6k6YIa/xy3T/w5ADRqblibXS2k1mp/uQjtsaHiyB+9r2JgVaEpaYaquavLUSxXuu2Om+teRM7SKgDYjrvSu//UNOANAxX13YPYkXicyRag78hb6jvGgjFWw/+7RhHtp8nQcAATQ19WDMwVfOFms5Q4LfYB+z98AAJ/1X8YHExYrhJG+3+FxB2DZvRHLZmQ7Ivbi4PF3EnZMkDtiue7YaijVIuhIBz19tqVBuhet/74ccGzFb/o+0qw4+Q0icm821+SpF1RhdrkWQ9MAzvr8Ouy95Wt68Couvn0GF1CB783+hkZ54TqbIgx6sHeDLbyWAJCs67Ay07SGHkZTxVru6150zilByddmYvG28b0TAo4VmPm1EpSUrEN3IMXa9dAgXty+DwGpAWuWfEvhThc1WG/bDPlM1OQdE+RrSGliSp6FLuHk4ZOA1ArbtmXhb6YIhnLbOmHC0hTMMJmx3ujXdBF1Xussuj5Bi23bJ2CYC8txP4TYi+XSZJo8OZsICIQztHQlb9ODU1FpOaLNzVFdThFexeCRTmzskzs4q1JvpZ+k0IGwWMuNDDfkU1+3chKJ1LgEtRlTJeXgMBv/8oP50dFvYi9evoa0utentcg08h34Qc23EXkbCcFQblszzkiU3o4HGhdqmiyku8B7I0jO+MjiS8FqetKY3NuTpe3NxdyD0oNiLbcq0ZFFY/3tmQNlbHCYOx/1jfLZOfG9+Eh2Yz725FMhGhwqMPfuJWhMGQzlulHSmZSnNk/i8MlLmnTi9FdrRHkWaUgATLyXWOL0YY5H1BkUa7lViQRMZWWPH7VMR229KUUvPpqAk589+bKVEDjLbk8TDLOZkpOTW7RLs9ddtelWFimphkoLjmfMm0/zddwSTs270enlPlNimvQESR9xe46hwFMgxVpuleRpHUVlT8zONKCsNlUvXh6h5TrRR63olNx44JyWOhhmOSUXSW7RKM0+j/WWxzUNXxX5SlQopNAAHPXl6qYGFS0cS5zqSd/Tjd9zDArn5nOlWMudDymCQ8pefGIjrUzepquTgkOaYKg2/V6jBIsb+ZNEpEDCVE/a3tynePOl7ugZLErn5nOmWMutTmIgnPjBckZT7GFrKXrx772Z3e7XeZYykSApGL6J97LZFT0H8viSMQvNSBuRTKcbWCTTTs304BHtVh+PvIEjXS9H/5/uNMhAN5pS9kLTnGMR9/hatPXG5O/Hbd0xB03d7+Wp3DkoRz6l7Jkn9+JfPvy6soymBPmZrk63YDoxGP4Rh8/0F3RKjiMRpbIYKjI7Swm9LO6KpnGn9ym8z3ZhR6QnLMG0xQxjqikhaTnsHhsqAMDshF8ICDGG0f5t+MeDLVhsfBq9sesUYh+feAhaWR229dlhggSj7RD2xKVX57DcWZUjP7JZpJo23TWhF9+18dcKM5oKId39msRguAcb23tQyGQJBhH6ipMPywpLmicOIej9PTZsjOnNGzdi64OVaS6eED4b/hifQYLp3u/gmwAAA0rn1uEn91UAgb/gjb9+lvz4irWwPlmTlL8fGv0YF1JuepmjcmddjjzLOI8/UbprfC9+nM4XGaYKDnHBMEzNlJxGCRa6q7txIQS9e9G288+Kdx0NBU5gU9NvNN9cTI3iyc6KPbGwHm37z+h3d9ocMlQux9bIJncncXDf6+F6GMHgiV1obVgfWREO4y/gPtQ6wdEC0d2O4xqnYAAX3/0MkO7Bd//55uTHf28JHnnABAkncfCld8JZa+GdAirm447ZyQ1ETsqtohx5oXjqVr5XlGp6J6EXD+g3U23CbLTkYJjNlFzk/pJWa2MmcRZJ9iIHUmU+lGhsyCksEoRktomjaQ+XGRY+d484ajMLCdXCbD+r8eEs8iFKej2YSn35xvwnRVfSITcQkrlLuHw5fKdZfAbyaswvTneZhZRQH/F1s1uc9n+R4ff0C7tJEpDkQ47GxKjPLexWkwBMot09FH9w2Fi/sJsqxg8Uk+sm8tzxv++Ef1tNyz2JcuScfJjaRJ+bMTHq6RJGQADVwuK8lOKQtug1g6wPusuXT4THtnS8fFKrcA6l+NtFriNkcSCdENHD9rJ5zsTyG0TkC0xRAzImRn1OYTVKaS+O6JdJWJ39OTjdK9tTA/Mtekqh8gt8WPic7ZELzWz7g3D7hsWY3yN67Nbw903Cuu+08OfiDWd1smUhDAufq0uYpdhG2CacHr+yv7/fKcyJn0/JLGxHXxaeVA253ynMMAqbZ1Qknfw47BZWSelnT4tya1GO3JFP1kz3WY+evCl/pfqMRU8s1WfnMOHk0bSBLjYYZtMhk5+n3fVXoCCSxQdyzC88Pc7waCOxhzXRKKVA5c2rmA+cgh7VmP+02BfuEVvtx1I3aqM+4T5qE2YpN6OS6IWu1yAihPreamIvL9ozlixOMZT0O8KPl6JHs0YaSotTvNtvF6as6mmS5dasHDmSNMqjrMmdOA1HYHk+Y13v00MJ9Dr1EhHTq8p0YY1dEs61rcJ2VGHQHfMLT8+zwmrepeJ8eg3KW1DxvdXo1Mj46LjdekD0p6wT+fMt9+hFTEckVSMcfrzZKfyRl5YfbxRmszHLeppkuTUrR67I7y/dVBVN7Asx5GwVksbtWZ6DSLbTL8PC57ZHp7Qks+g6HTs8jx3CS8JodWo7KtH91EtMz14XF3kmMY2cLueiY4xdEk5L8j0joFqYu06mnupL2VNOmBpKenxFwihXvtBVTreoLrfG5cgV+f2lu1dAaY35XaLdKKUZFauX5yAS0+hlakTGhoS73ZR8MUQu0JibT5EvbSOs4rIW0oQ93RRGfcIdufeR4qbrqE+4IlOHWt9rkjsRep0eTBBXF5nuMcTc1I0LIjGB09gVM6qTH5+iLiKdF5X1pKrcOShHroyeFXZztZDM+9KMrChJuM7iP4PayHsQUda7D194xnbh9A3HNJTR54357GJpuAGMzrNrGUSiF79uemEpKb/5L/dEkrJ35Pc3elrYEn+u6Qhngl55sUu8oR7b8YjNpKmwCc+XiY+Pmf4SQkQ7SHkYAeulHNka7RdOq0nAaBV2ty8HSTU3ii+E33NAWI0V2s/UhOU/iKhpSGIvwhSNWm6mdIqlwVMa7D4UbuuCyAcpLpPFZBe+sc+Fz24JT3nE3LDXsk6TUkeJJuML4fccE3brap1fo4Uy3jZUZJOlp4I2J51mJbxQZse+8Ml2mfd7id18LXkH0ujuwJruTho5NXChzs9ekBdQbcOO8OmLqatgOuq2/xl1AIAQRmJ2VB5fqDQVZRY79gMArmJU/pmGdRr5O5r0eQAQFZspkGruh6Xm/kIXRKcMKKvbivN1uX6VvJMbPaWHosjbGAAp91uKnLvcit1PLNRsd9LIDpqWf0W9Dnf4jCNvg6D4yMvYbcRT7eoqr/rVcsdX+e9YDcvaxTo8AIiI1CjMpZxVoxe75XXiPjfX8H7PbnS4AON6M0wztNq+IOZEsTU/wAzdN3jyNggKj7yMO1Y1eW+e0OBL2L7DC8myCU8Yp2tTxMj23A1Ys+Rbet1vh4iyVKBreRrmP7gGRiWNXmRaCQn7yIQQHHgBmx7fA1h247n187XbGC7leQR6ZkDZ/GVYb4Sy0V3sYVaJG7eFLqNn+064sBTrH6vTLICmPBuBiIpega5mA0rv+hEaTQoavZSn94UQHDiI1rpmHKj6BZ7bcn9CYxdCcLAbbYvKx89x6DyDIEYweGInmsrHz3aodwykDV7jDR7Sb5utR6W344HGhYpGd3H3mOI2bhvBwL5f4XEHYHHuwfqaWzQqnDyyW4UtLQuK7kAkIkqvcC2koRIr25ohuZ6Bve+jtA9LOtEsFIB3fzsavj0eQNyH2lEnxU9jhQb3YcXas6g/9Dqc5pvRt/cwXtjbiX2jP8Jv++wwTXiAy0fosz8Dl9SMtpXpts3Wo6moXLkOVukoOuynMJL2cemOKR7BgONnqGt5BVXtXdiy7Lb49x4cQHdb/fiZJ4t2whu8juDgcXQ2zct8DsrIKdg7jkKyrsNKrQ6JIiJ9yFHWlzLh1acTrqCM260yumulopznmL2vjLbTinLJx3cP1tniKsXCq4wnXM0bv8GbZHWLTyJ7aknC2O5KXtU81i/spqWi3X1JDDnXCmCBsD67S1jbncI3/H/CbpImSC+WVz7rcK0BEU1aYYNIZLXsRGsxhkW/3RJefSsJo/VZ0aM051kOQIpXaYbXhuRgVWfehBcMpm/UE/dXymYn5JgApLSOwjvAKg3iRFRcChxEhIisis1Bw/2lxyYqFG/ZIAe0pcLm+UTTcuSXgvchb4EgB490O/omkRdgKq2j3P1tiUgfdBBERLhRq9G4t6rkEJvYMpwWNmNNDg62KoTw6E3rxvtLj7BVKN1LLBzMJIuw9+t30xgimhx93DcurUbz09twz8uPodVxLnwk52TJ60sUHGAfPAdH62N4+Z5teLq5urBnSGuiDHObf4Xn7nkVDa0HMaDRkcGhi2/jxAUlR3GGs+caXsU9z/0KzXOZj0V0o9JHEAFgkO7DlkPbcJvvTQxp0ehdv4w3nF4g47nQIQSH3oTvtm04tOU+SLqpkUkyzEDdFgeeu+0CTg1pEZblrK4UuwYkCWLo1AXc9pwDW+pm6OdDRkSaKxFCiEIXIhdCgw78qKoFLrMT/v3L4w61JzWC8HY2oHYjYPMcw4aa4h+vEdHkFWADxvwwVFpwXFgKXYwbR2gIb5/wAXgAs8u51oOIxt2wIxEiIso9TlcTEZFqDCJERKQagwgREanGIEJERKoxiBARkWoMIkREpBqDCBERqcYgQkREqjGIEBGRagwiRESkGoMIERGpxiBCRESqMYgQEZFqDCJERKQagwgREanGIEJERKoxiBARkWoMIkREpBqDCBERqcYgQkREqjGIEBGRagwiRESkGoMIERGpxiBCRESqMYgQEZFq/w9hgeJswZqOcwAAAABJRU5ErkJggg==;" parent="1" vertex="1">
          <mxGeometry x="930" y="640.22" width="300" height="89.78" as="geometry" />
        </mxCell>
      </root>
    </mxGraphModel>
  </diagram>
</mxfile>
